<svg xmlns="http://www.w3.org/2000/svg" xmlns:xlink="http://www.w3.org/1999/xlink" width="2500" zoomAndPan="magnify" viewBox="0 0 1874.88 374.999991" height="500" preserveAspectRatio="xMidYMid meet" version="1.0"><defs><g/><clipPath id="1869cc3de5"><path d="M 207 68.929688 L 487.84375 68.929688 L 487.84375 305.914062 L 207 305.914062 Z M 207 68.929688 " clip-rule="nonzero"/></clipPath></defs><g clip-path="url(#1869cc3de5)"><path fill="#e4eaec" d="M 487.0625 70.066406 C 486.378906 69.355469 485.441406 68.953125 484.460938 68.953125 C 426.148438 68.953125 383.382812 84.808594 357.339844 116.074219 C 333.109375 145.15625 329.273438 180.335938 329.601562 201.648438 C 325.21875 194.199219 320.011719 186.988281 313.8125 180.28125 C 289.992188 154.507812 256.21875 141.4375 213.429688 141.4375 C 211.789062 141.4375 210.363281 142.542969 209.941406 144.125 C 209.523438 145.710938 199.953125 183.273438 223.019531 213.226562 C 240.863281 236.402344 272.96875 248.152344 318.429688 248.152344 C 319.484375 248.152344 320.488281 247.691406 321.171875 246.890625 C 321.855469 246.089844 322.152344 245.027344 321.996094 243.984375 C 321.726562 242.296875 314.789062 202.289062 252.472656 177.335938 C 250.632812 176.59375 248.515625 177.488281 247.785156 179.347656 C 247.042969 181.195312 247.945312 183.292969 249.792969 184.035156 C 296.421875 202.707031 310.0625 230.40625 313.675781 240.890625 C 273.128906 240.121094 244.585938 229.363281 228.777344 208.882812 C 211.226562 186.140625 214.71875 157.503906 216.347656 148.675781 C 255.636719 149.25 286.628906 161.515625 308.484375 185.144531 C 349.957031 229.988281 344.890625 301.496094 344.835938 302.214844 C 344.679688 304.203125 346.164062 305.9375 348.148438 306.089844 C 348.246094 306.101562 348.34375 306.105469 348.4375 306.105469 C 350.304688 306.105469 351.878906 304.671875 352.03125 302.78125 C 352.210938 300.492188 355.160156 259.234375 338.1875 218.839844 C 337.179688 212.3125 330.304688 159.800781 362.882812 120.691406 C 386.914062 91.839844 426.492188 76.875 480.558594 76.195312 C 478.511719 97.789062 463.210938 204.398438 361.773438 206.875 C 362.167969 194.199219 366.839844 149.632812 411.839844 123.757812 C 413.566406 122.761719 414.160156 120.558594 413.167969 118.828125 C 412.171875 117.101562 409.96875 116.507812 408.242188 117.5 C 351.84375 149.929688 354.53125 210.121094 354.5625 210.726562 C 354.671875 212.640625 356.25 214.132812 358.167969 214.132812 C 480.785156 214.132812 488.007812 74.128906 488.0625 72.714844 C 488.101562 71.734375 487.742188 70.773438 487.0625 70.066406 " fill-opacity="1" fill-rule="nonzero"/></g><path stroke-linecap="butt" transform="matrix(0.621548, -0.419651, 0.419651, 0.621548, 399.057441, 124.402413)" fill="none" stroke-linejoin="miter" d="M 0.00102308 3.501166 L 18.402965 3.500732 " stroke="#e4eaec" stroke-width="7" stroke-opacity="1" stroke-miterlimit="4"/><path stroke-linecap="round" transform="matrix(0.621548, -0.419651, 0.419651, 0.621548, 399.057441, 124.402413)" fill-opacity="1" fill="#e4eaec" fill-rule="nonzero" stroke-linejoin="round" d="M 20.156221 -6.998808 L 34.152529 3.500634 L 20.157323 13.999171 Z M 20.156221 -6.998808 " stroke="#e4eaec" stroke-width="7" stroke-opacity="1" stroke-miterlimit="4"/><g fill="#e4eaec" fill-opacity="1"><g transform="translate(511.192508, 265.420585)"><g><path d="M 102.40625 -38.96875 C 102.40625 -26.039062 97.710938 -15.972656 88.328125 -8.765625 C 78.941406 -1.554688 66.296875 2.046875 50.390625 2.046875 C 42.222656 2.046875 34.671875 1.429688 27.734375 0.203125 C 20.804688 -1.015625 15.03125 -2.710938 10.40625 -4.890625 L 10.40625 -22.4375 C 15.300781 -20.257812 21.382812 -18.285156 28.65625 -16.515625 C 35.9375 -14.753906 43.453125 -13.875 51.203125 -13.875 C 61.941406 -13.875 70.097656 -15.976562 75.671875 -20.1875 C 81.253906 -24.40625 84.046875 -30.117188 84.046875 -37.328125 C 84.046875 -42.085938 83.023438 -46.097656 80.984375 -49.359375 C 78.941406 -52.628906 75.40625 -55.625 70.375 -58.34375 C 65.34375 -61.0625 58.472656 -64.050781 49.765625 -67.3125 C 37.253906 -71.800781 27.867188 -77.304688 21.609375 -83.828125 C 15.359375 -90.359375 12.234375 -99.269531 12.234375 -110.5625 C 12.234375 -118.175781 14.203125 -124.769531 18.140625 -130.34375 C 22.085938 -135.914062 27.53125 -140.195312 34.46875 -143.1875 C 41.40625 -146.1875 49.5 -147.6875 58.75 -147.6875 C 66.632812 -147.6875 73.90625 -146.9375 80.5625 -145.4375 C 87.226562 -143.945312 93.351562 -141.976562 98.9375 -139.53125 L 93.21875 -123.8125 C 88.1875 -125.988281 82.675781 -127.820312 76.6875 -129.3125 C 70.707031 -130.8125 64.59375 -131.5625 58.34375 -131.5625 C 49.226562 -131.5625 42.359375 -129.625 37.734375 -125.75 C 33.109375 -121.875 30.796875 -116.742188 30.796875 -110.359375 C 30.796875 -105.460938 31.816406 -101.378906 33.859375 -98.109375 C 35.898438 -94.847656 39.234375 -91.890625 43.859375 -89.234375 C 48.484375 -86.585938 54.738281 -83.835938 62.625 -80.984375 C 71.1875 -77.859375 78.425781 -74.492188 84.34375 -70.890625 C 90.257812 -67.285156 94.75 -62.96875 97.8125 -57.9375 C 100.875 -52.90625 102.40625 -46.582031 102.40625 -38.96875 Z M 102.40625 -38.96875 "/></g></g></g><g fill="#e4eaec" fill-opacity="1"><g transform="translate(623.18341, 265.420585)"><g><path d="M 59.5625 -111.375 C 68.8125 -111.375 76.832031 -109.332031 83.625 -105.25 C 90.425781 -101.175781 95.628906 -95.429688 99.234375 -88.015625 C 102.835938 -80.609375 104.640625 -71.941406 104.640625 -62.015625 L 104.640625 -51.203125 L 29.78125 -51.203125 C 30.050781 -38.828125 33.210938 -29.410156 39.265625 -22.953125 C 45.316406 -16.492188 53.78125 -13.265625 64.65625 -13.265625 C 71.59375 -13.265625 77.75 -13.910156 83.125 -15.203125 C 88.5 -16.492188 94.039062 -18.363281 99.75 -20.8125 L 99.75 -5.09375 C 94.175781 -2.644531 88.664062 -0.84375 83.21875 0.3125 C 77.78125 1.46875 71.320312 2.046875 63.84375 2.046875 C 53.375 2.046875 44.195312 -0.0625 36.3125 -4.28125 C 28.425781 -8.5 22.269531 -14.753906 17.84375 -23.046875 C 13.425781 -31.347656 11.21875 -41.617188 11.21875 -53.859375 C 11.21875 -65.816406 13.222656 -76.078125 17.234375 -84.640625 C 21.242188 -93.210938 26.882812 -99.8125 34.15625 -104.4375 C 41.4375 -109.0625 49.90625 -111.375 59.5625 -111.375 Z M 59.359375 -96.6875 C 50.796875 -96.6875 44.03125 -93.929688 39.0625 -88.421875 C 34.101562 -82.921875 31.144531 -75.273438 30.1875 -65.484375 L 85.875 -65.484375 C 85.738281 -74.722656 83.5625 -82.234375 79.34375 -88.015625 C 75.132812 -93.796875 68.472656 -96.6875 59.359375 -96.6875 Z M 59.359375 -96.6875 "/></g></g></g><g fill="#e4eaec" fill-opacity="1"><g transform="translate(738.234143, 265.420585)"><g><path d="M 59.5625 -111.375 C 68.8125 -111.375 76.832031 -109.332031 83.625 -105.25 C 90.425781 -101.175781 95.628906 -95.429688 99.234375 -88.015625 C 102.835938 -80.609375 104.640625 -71.941406 104.640625 -62.015625 L 104.640625 -51.203125 L 29.78125 -51.203125 C 30.050781 -38.828125 33.210938 -29.410156 39.265625 -22.953125 C 45.316406 -16.492188 53.78125 -13.265625 64.65625 -13.265625 C 71.59375 -13.265625 77.75 -13.910156 83.125 -15.203125 C 88.5 -16.492188 94.039062 -18.363281 99.75 -20.8125 L 99.75 -5.09375 C 94.175781 -2.644531 88.664062 -0.84375 83.21875 0.3125 C 77.78125 1.46875 71.320312 2.046875 63.84375 2.046875 C 53.375 2.046875 44.195312 -0.0625 36.3125 -4.28125 C 28.425781 -8.5 22.269531 -14.753906 17.84375 -23.046875 C 13.425781 -31.347656 11.21875 -41.617188 11.21875 -53.859375 C 11.21875 -65.816406 13.222656 -76.078125 17.234375 -84.640625 C 21.242188 -93.210938 26.882812 -99.8125 34.15625 -104.4375 C 41.4375 -109.0625 49.90625 -111.375 59.5625 -111.375 Z M 59.359375 -96.6875 C 50.796875 -96.6875 44.03125 -93.929688 39.0625 -88.421875 C 34.101562 -82.921875 31.144531 -75.273438 30.1875 -65.484375 L 85.875 -65.484375 C 85.738281 -74.722656 83.5625 -82.234375 79.34375 -88.015625 C 75.132812 -93.796875 68.472656 -96.6875 59.359375 -96.6875 Z M 59.359375 -96.6875 "/></g></g></g><g fill="#e4eaec" fill-opacity="1"><g transform="translate(853.2849, 265.420585)"><g><path d="M 56.09375 2.046875 C 42.5 2.046875 31.617188 -2.675781 23.453125 -12.125 C 15.296875 -21.582031 11.21875 -35.695312 11.21875 -54.46875 C 11.21875 -73.226562 15.332031 -87.398438 23.5625 -96.984375 C 31.789062 -106.578125 42.703125 -111.375 56.296875 -111.375 C 64.734375 -111.375 71.632812 -109.804688 77 -106.671875 C 82.375 -103.546875 86.757812 -99.742188 90.15625 -95.265625 L 91.390625 -95.265625 C 91.117188 -97.023438 90.84375 -99.640625 90.5625 -103.109375 C 90.289062 -106.578125 90.15625 -109.332031 90.15625 -111.375 L 90.15625 -155.03125 L 108.109375 -155.03125 L 108.109375 0 L 93.625 0 L 90.984375 -14.6875 L 90.15625 -14.6875 C 86.894531 -10.0625 82.546875 -6.113281 77.109375 -2.84375 C 71.671875 0.414062 64.664062 2.046875 56.09375 2.046875 Z M 58.953125 -12.84375 C 70.515625 -12.84375 78.640625 -16.003906 83.328125 -22.328125 C 88.015625 -28.660156 90.359375 -38.21875 90.359375 -51 L 90.359375 -54.265625 C 90.359375 -67.859375 88.113281 -78.289062 83.625 -85.5625 C 79.144531 -92.84375 70.851562 -96.484375 58.75 -96.484375 C 49.09375 -96.484375 41.847656 -92.640625 37.015625 -84.953125 C 32.191406 -77.273438 29.78125 -66.976562 29.78125 -54.0625 C 29.78125 -41 32.191406 -30.863281 37.015625 -23.65625 C 41.847656 -16.445312 49.160156 -12.84375 58.953125 -12.84375 Z M 58.953125 -12.84375 "/></g></g></g><g fill="#e4eaec" fill-opacity="1"><g transform="translate(978.739226, 265.420585)"><g><path d="M 84.046875 0 L 36.109375 -127.6875 L 35.296875 -127.6875 C 35.703125 -123.476562 36.039062 -117.800781 36.3125 -110.65625 C 36.582031 -103.519531 36.71875 -96.078125 36.71875 -88.328125 L 36.71875 0 L 19.78125 0 L 19.78125 -145.640625 L 46.921875 -145.640625 L 91.796875 -26.3125 L 92.609375 -26.3125 L 138.296875 -145.640625 L 165.234375 -145.640625 L 165.234375 0 L 147.078125 0 L 147.078125 -89.546875 C 147.078125 -96.617188 147.242188 -103.625 147.578125 -110.5625 C 147.921875 -117.5 148.226562 -123.140625 148.5 -127.484375 L 147.6875 -127.484375 L 99.140625 0 Z M 84.046875 0 "/></g></g></g><g fill="#e4eaec" fill-opacity="1"><g transform="translate(1163.758792, 265.420585)"><g><path d="M 59.5625 -111.375 C 68.8125 -111.375 76.832031 -109.332031 83.625 -105.25 C 90.425781 -101.175781 95.628906 -95.429688 99.234375 -88.015625 C 102.835938 -80.609375 104.640625 -71.941406 104.640625 -62.015625 L 104.640625 -51.203125 L 29.78125 -51.203125 C 30.050781 -38.828125 33.210938 -29.410156 39.265625 -22.953125 C 45.316406 -16.492188 53.78125 -13.265625 64.65625 -13.265625 C 71.59375 -13.265625 77.75 -13.910156 83.125 -15.203125 C 88.5 -16.492188 94.039062 -18.363281 99.75 -20.8125 L 99.75 -5.09375 C 94.175781 -2.644531 88.664062 -0.84375 83.21875 0.3125 C 77.78125 1.46875 71.320312 2.046875 63.84375 2.046875 C 53.375 2.046875 44.195312 -0.0625 36.3125 -4.28125 C 28.425781 -8.5 22.269531 -14.753906 17.84375 -23.046875 C 13.425781 -31.347656 11.21875 -41.617188 11.21875 -53.859375 C 11.21875 -65.816406 13.222656 -76.078125 17.234375 -84.640625 C 21.242188 -93.210938 26.882812 -99.8125 34.15625 -104.4375 C 41.4375 -109.0625 49.90625 -111.375 59.5625 -111.375 Z M 59.359375 -96.6875 C 50.796875 -96.6875 44.03125 -93.929688 39.0625 -88.421875 C 34.101562 -82.921875 31.144531 -75.273438 30.1875 -65.484375 L 85.875 -65.484375 C 85.738281 -74.722656 83.5625 -82.234375 79.34375 -88.015625 C 75.132812 -93.796875 68.472656 -96.6875 59.359375 -96.6875 Z M 59.359375 -96.6875 "/></g></g></g><g fill="#e4eaec" fill-opacity="1"><g transform="translate(1278.809549, 265.420585)"><g><path d="M 53.859375 -12.640625 C 56.578125 -12.640625 59.363281 -12.84375 62.21875 -13.25 C 65.070312 -13.664062 67.382812 -14.210938 69.15625 -14.890625 L 69.15625 -1.21875 C 67.25 -0.269531 64.523438 0.507812 60.984375 1.125 C 57.453125 1.738281 54.054688 2.046875 50.796875 2.046875 C 45.078125 2.046875 39.800781 1.0625 34.96875 -0.90625 C 30.144531 -2.882812 26.238281 -6.320312 23.25 -11.21875 C 20.257812 -16.113281 18.765625 -22.984375 18.765625 -31.828125 L 18.765625 -95.46875 L 3.265625 -95.46875 L 3.265625 -104.03125 L 18.96875 -111.171875 L 26.109375 -134.421875 L 36.71875 -134.421875 L 36.71875 -109.328125 L 68.328125 -109.328125 L 68.328125 -95.46875 L 36.71875 -95.46875 L 36.71875 -32.234375 C 36.71875 -25.566406 38.3125 -20.632812 41.5 -17.4375 C 44.695312 -14.238281 48.816406 -12.640625 53.859375 -12.640625 Z M 53.859375 -12.640625 "/></g></g></g><g fill="#e4eaec" fill-opacity="1"><g transform="translate(1352.450159, 265.420585)"><g><path d="M 68.328125 -111.375 C 70.367188 -111.375 72.546875 -111.269531 74.859375 -111.0625 C 77.171875 -110.863281 79.28125 -110.5625 81.1875 -110.15625 L 78.9375 -93.625 C 77.175781 -94.03125 75.207031 -94.367188 73.03125 -94.640625 C 70.851562 -94.921875 68.878906 -95.0625 67.109375 -95.0625 C 61.535156 -95.0625 56.300781 -93.53125 51.40625 -90.46875 C 46.507812 -87.40625 42.597656 -83.117188 39.671875 -77.609375 C 36.753906 -72.109375 35.296875 -65.6875 35.296875 -58.34375 L 35.296875 0 L 17.34375 0 L 17.34375 -109.328125 L 32.03125 -109.328125 L 34.0625 -89.34375 L 34.875 -89.34375 C 38.28125 -95.332031 42.800781 -100.5 48.4375 -104.84375 C 54.082031 -109.195312 60.710938 -111.375 68.328125 -111.375 Z M 68.328125 -111.375 "/></g></g></g><g fill="#e4eaec" fill-opacity="1"><g transform="translate(1436.698327, 265.420585)"><g><path d="M 26.515625 -150.34375 C 29.234375 -150.34375 31.644531 -149.421875 33.75 -147.578125 C 35.863281 -145.742188 36.921875 -142.851562 36.921875 -138.90625 C 36.921875 -134.96875 35.863281 -132.078125 33.75 -130.234375 C 31.644531 -128.398438 29.234375 -127.484375 26.515625 -127.484375 C 23.523438 -127.484375 21.007812 -128.398438 18.96875 -130.234375 C 16.925781 -132.078125 15.90625 -134.96875 15.90625 -138.90625 C 15.90625 -142.851562 16.925781 -145.742188 18.96875 -147.578125 C 21.007812 -149.421875 23.523438 -150.34375 26.515625 -150.34375 Z M 35.296875 -109.328125 L 35.296875 0 L 17.34375 0 L 17.34375 -109.328125 Z M 35.296875 -109.328125 "/></g></g></g><g fill="#e4eaec" fill-opacity="1"><g transform="translate(1489.327999, 265.420585)"><g><path d="M 61.1875 2.046875 C 51.40625 2.046875 42.769531 0.0703125 35.28125 -3.875 C 27.800781 -7.820312 21.921875 -13.941406 17.640625 -22.234375 C 13.359375 -30.523438 11.21875 -41.132812 11.21875 -54.0625 C 11.21875 -67.519531 13.425781 -78.460938 17.84375 -86.890625 C 22.269531 -95.328125 28.359375 -101.515625 36.109375 -105.453125 C 43.859375 -109.398438 52.628906 -111.375 62.421875 -111.375 C 67.859375 -111.375 73.191406 -110.796875 78.421875 -109.640625 C 83.660156 -108.484375 87.914062 -107.085938 91.1875 -105.453125 L 85.671875 -90.5625 C 82.410156 -91.789062 78.601562 -92.945312 74.25 -94.03125 C 69.894531 -95.125 65.816406 -95.671875 62.015625 -95.671875 C 40.523438 -95.671875 29.78125 -81.867188 29.78125 -54.265625 C 29.78125 -41.066406 32.394531 -30.96875 37.625 -23.96875 C 42.863281 -16.96875 50.648438 -13.46875 60.984375 -13.46875 C 66.835938 -13.46875 72.078125 -14.078125 76.703125 -15.296875 C 81.328125 -16.523438 85.539062 -18.019531 89.34375 -19.78125 L 89.34375 -3.875 C 85.675781 -1.96875 81.628906 -0.503906 77.203125 0.515625 C 72.785156 1.535156 67.445312 2.046875 61.1875 2.046875 Z M 61.1875 2.046875 "/></g></g></g><g fill="#e4eaec" fill-opacity="1"><g transform="translate(1587.243557, 265.420585)"><g><path d="M 88.53125 -30.1875 C 88.53125 -19.582031 84.582031 -11.554688 76.6875 -6.109375 C 68.800781 -0.671875 58.195312 2.046875 44.875 2.046875 C 37.257812 2.046875 30.695312 1.429688 25.1875 0.203125 C 19.6875 -1.015625 14.828125 -2.710938 10.609375 -4.890625 L 10.609375 -21.21875 C 14.960938 -19.039062 20.234375 -17.03125 26.421875 -15.1875 C 32.609375 -13.351562 38.894531 -12.4375 45.28125 -12.4375 C 54.394531 -12.4375 60.988281 -13.898438 65.0625 -16.828125 C 69.144531 -19.753906 71.1875 -23.664062 71.1875 -28.5625 C 71.1875 -31.28125 70.4375 -33.726562 68.9375 -35.90625 C 67.445312 -38.082031 64.765625 -40.253906 60.890625 -42.421875 C 57.015625 -44.597656 51.472656 -47.046875 44.265625 -49.765625 C 37.191406 -52.492188 31.140625 -55.21875 26.109375 -57.9375 C 21.078125 -60.65625 17.203125 -63.914062 14.484375 -67.71875 C 11.765625 -71.53125 10.40625 -76.425781 10.40625 -82.40625 C 10.40625 -91.65625 14.175781 -98.796875 21.71875 -103.828125 C 29.269531 -108.859375 39.164062 -111.375 51.40625 -111.375 C 58.070312 -111.375 64.289062 -110.691406 70.0625 -109.328125 C 75.84375 -107.972656 81.25 -106.207031 86.28125 -104.03125 L 80.171875 -89.75 C 75.546875 -91.65625 70.71875 -93.285156 65.6875 -94.640625 C 60.65625 -96.003906 55.488281 -96.6875 50.1875 -96.6875 C 42.84375 -96.6875 37.226562 -95.492188 33.34375 -93.109375 C 29.46875 -90.734375 27.53125 -87.503906 27.53125 -83.421875 C 27.53125 -80.296875 28.414062 -77.710938 30.1875 -75.671875 C 31.957031 -73.640625 34.914062 -71.601562 39.0625 -69.5625 C 43.207031 -67.519531 48.75 -65.207031 55.6875 -62.625 C 62.625 -60.039062 68.539062 -57.390625 73.4375 -54.671875 C 78.332031 -51.953125 82.070312 -48.65625 84.65625 -44.78125 C 87.238281 -40.90625 88.53125 -36.039062 88.53125 -30.1875 Z M 88.53125 -30.1875 "/></g></g></g></svg>