<svg xmlns="http://www.w3.org/2000/svg" xmlns:xlink="http://www.w3.org/1999/xlink" width="500" zoomAndPan="magnify" viewBox="0 0 375 374.999991" height="500" preserveAspectRatio="xMidYMid meet" version="1.0"><defs><g/><clipPath id="55d1545a41"><path d="M 73.140625 17 L 301.855469 17 L 301.855469 281 L 73.140625 281 Z M 73.140625 17 " clip-rule="nonzero"/></clipPath><clipPath id="529133b35d"><path d="M 191.546875 18.300781 L 297.804688 80.121094 C 300.3125 81.582031 301.855469 84.265625 301.855469 87.164062 L 301.855469 210.863281 C 301.855469 213.765625 300.3125 216.445312 297.804688 217.90625 L 191.546875 279.726562 C 189.042969 281.183594 185.949219 281.183594 183.445312 279.726562 L 77.191406 217.90625 C 74.683594 216.445312 73.140625 213.765625 73.140625 210.863281 L 73.140625 87.164062 C 73.140625 84.265625 74.683594 81.582031 77.191406 80.121094 L 183.445312 18.300781 C 185.949219 16.84375 189.042969 16.84375 191.546875 18.300781 Z M 191.546875 18.300781 " clip-rule="nonzero"/></clipPath><clipPath id="f895400fa2"><path d="M 108 89.265625 L 266.5 89.265625 L 266.5 223.515625 L 108 223.515625 Z M 108 89.265625 " clip-rule="nonzero"/></clipPath><clipPath id="35602b5c28"><path d="M 177 224.0625 L 184 224.0625 L 184 270 L 177 270 Z M 177 224.0625 " clip-rule="nonzero"/></clipPath><clipPath id="7d4f5e85cc"><path d="M 187 224.0625 L 189 224.0625 L 189 255 L 187 255 Z M 187 224.0625 " clip-rule="nonzero"/></clipPath><clipPath id="fd77023a6e"><path d="M 172 224.0625 L 178 224.0625 L 178 263 L 172 263 Z M 172 224.0625 " clip-rule="nonzero"/></clipPath><clipPath id="8731da42b4"><path d="M 171 224.0625 L 173 224.0625 L 173 238 L 171 238 Z M 171 224.0625 " clip-rule="nonzero"/></clipPath><clipPath id="4c5e0a8f60"><path d="M 191 224.0625 L 199 224.0625 L 199 269 L 191 269 Z M 191 224.0625 " clip-rule="nonzero"/></clipPath><clipPath id="25491dc907"><path d="M 196 224.0625 L 201 224.0625 L 201 242 L 196 242 Z M 196 224.0625 " clip-rule="nonzero"/></clipPath><clipPath id="1215ffef73"><path d="M 202 224.0625 L 204 224.0625 L 204 265 L 202 265 Z M 202 224.0625 " clip-rule="nonzero"/></clipPath><clipPath id="71ce324470"><path d="M 205 255 L 205.757812 255 L 205.757812 259 L 205 259 Z M 205 255 " clip-rule="nonzero"/></clipPath><clipPath id="c36e0d8433"><path d="M 176 268 L 180 268 L 180 272.0625 L 176 272.0625 Z M 176 268 " clip-rule="nonzero"/></clipPath><clipPath id="45ea8d68b3"><path d="M 170.507812 236 L 174 236 L 174 240 L 170.507812 240 Z M 170.507812 236 " clip-rule="nonzero"/></clipPath><clipPath id="db0dcdff67"><path d="M 210 224.0625 L 215 224.0625 L 215 255 L 210 255 Z M 210 224.0625 " clip-rule="nonzero"/></clipPath><clipPath id="55450d15d8"><path d="M 217 224.0625 L 219 224.0625 L 219 245 L 217 245 Z M 217 224.0625 " clip-rule="nonzero"/></clipPath><clipPath id="a475b69507"><path d="M 207 224.0625 L 211 224.0625 L 211 250 L 207 250 Z M 207 224.0625 " clip-rule="nonzero"/></clipPath><clipPath id="c3c13b9baf"><path d="M 206.339844 224.0625 L 208 224.0625 L 208 234 L 206.339844 234 Z M 206.339844 224.0625 " clip-rule="nonzero"/></clipPath><clipPath id="2e8e72db6b"><path d="M 220 224.0625 L 225 224.0625 L 225 254 L 220 254 Z M 220 224.0625 " clip-rule="nonzero"/></clipPath><clipPath id="6b0371c933"><path d="M 223 224.0625 L 227 224.0625 L 227 236 L 223 236 Z M 223 224.0625 " clip-rule="nonzero"/></clipPath><clipPath id="c33e818ba1"><path d="M 227 224.0625 L 229 224.0625 L 229 252 L 227 252 Z M 227 224.0625 " clip-rule="nonzero"/></clipPath><clipPath id="24d43952e8"><path d="M 229 244 L 229.589844 244 L 229.589844 247 L 229 247 Z M 229 244 " clip-rule="nonzero"/></clipPath><clipPath id="742d6b2578"><path d="M 227 250 L 229.589844 250 L 229.589844 253 L 227 253 Z M 227 250 " clip-rule="nonzero"/></clipPath><clipPath id="1f6436c98e"><path d="M 206.339844 232 L 209 232 L 209 235 L 206.339844 235 Z M 206.339844 232 " clip-rule="nonzero"/></clipPath><clipPath id="db5ccd162b"><path d="M 235 224.0625 L 239 224.0625 L 239 247 L 235 247 Z M 235 224.0625 " clip-rule="nonzero"/></clipPath><clipPath id="031364ed67"><path d="M 240 224.0625 L 241 224.0625 L 241 240 L 240 240 Z M 240 224.0625 " clip-rule="nonzero"/></clipPath><clipPath id="e54cdb2ec4"><path d="M 233 224.0625 L 236 224.0625 L 236 244 L 233 244 Z M 233 224.0625 " clip-rule="nonzero"/></clipPath><clipPath id="802915d745"><path d="M 232.054688 224.0625 L 234 224.0625 L 234 231 L 232.054688 231 Z M 232.054688 224.0625 " clip-rule="nonzero"/></clipPath><clipPath id="51979e23c1"><path d="M 242 224.0625 L 247 224.0625 L 247 247 L 242 247 Z M 242 224.0625 " clip-rule="nonzero"/></clipPath><clipPath id="1b0b1cba05"><path d="M 244 224.0625 L 247 224.0625 L 247 233 L 244 233 Z M 244 224.0625 " clip-rule="nonzero"/></clipPath><clipPath id="9a1a32fdc5"><path d="M 248 224.0625 L 249 224.0625 L 249 245 L 248 245 Z M 248 224.0625 " clip-rule="nonzero"/></clipPath><clipPath id="d3b54d5bba"><path d="M 249 239 L 249.304688 239 L 249.304688 242 L 249 242 Z M 249 239 " clip-rule="nonzero"/></clipPath><clipPath id="6eaf598f73"><path d="M 247 243 L 249.304688 243 L 249.304688 246 L 247 246 Z M 247 243 " clip-rule="nonzero"/></clipPath><clipPath id="83aa0f9235"><path d="M 234 246 L 237 246 L 237 248.0625 L 234 248.0625 Z M 234 246 " clip-rule="nonzero"/></clipPath><clipPath id="4855d40182"><path d="M 232.054688 243 L 235 243 L 235 245 L 232.054688 245 Z M 232.054688 243 " clip-rule="nonzero"/></clipPath><clipPath id="01ad693c64"><path d="M 232.054688 230 L 234 230 L 234 232 L 232.054688 232 Z M 232.054688 230 " clip-rule="nonzero"/></clipPath><clipPath id="cafe7b20b5"><path d="M 160 224.0625 L 164 224.0625 L 164 255 L 160 255 Z M 160 224.0625 " clip-rule="nonzero"/></clipPath><clipPath id="b8838df718"><path d="M 156 224.0625 L 158 224.0625 L 158 245 L 156 245 Z M 156 224.0625 " clip-rule="nonzero"/></clipPath><clipPath id="c08ca307af"><path d="M 163 224.0625 L 167 224.0625 L 167 250 L 163 250 Z M 163 224.0625 " clip-rule="nonzero"/></clipPath><clipPath id="6b53542abd"><path d="M 167 224.0625 L 168 224.0625 L 168 234 L 167 234 Z M 167 224.0625 " clip-rule="nonzero"/></clipPath><clipPath id="1fbd5e85b2"><path d="M 149 224.0625 L 155 224.0625 L 155 254 L 149 254 Z M 149 224.0625 " clip-rule="nonzero"/></clipPath><clipPath id="4bf3c5c34b"><path d="M 148 224.0625 L 152 224.0625 L 152 236 L 148 236 Z M 148 224.0625 " clip-rule="nonzero"/></clipPath><clipPath id="89c86e7404"><path d="M 146 224.0625 L 147 224.0625 L 147 252 L 146 252 Z M 146 224.0625 " clip-rule="nonzero"/></clipPath><clipPath id="337854b14a"><path d="M 145.078125 244 L 146 244 L 146 247 L 145.078125 247 Z M 145.078125 244 " clip-rule="nonzero"/></clipPath><clipPath id="a8ecde4fe1"><path d="M 145.078125 250 L 148 250 L 148 253 L 145.078125 253 Z M 145.078125 250 " clip-rule="nonzero"/></clipPath><clipPath id="13f0bd07b7"><path d="M 166 232 L 168.328125 232 L 168.328125 235 L 166 235 Z M 166 232 " clip-rule="nonzero"/></clipPath><clipPath id="741d2d5bba"><path d="M 136 223.257812 L 140 223.257812 L 140 246 L 136 246 Z M 136 223.257812 " clip-rule="nonzero"/></clipPath><clipPath id="acedef797b"><path d="M 134 223.257812 L 135 223.257812 L 135 239 L 134 239 Z M 134 223.257812 " clip-rule="nonzero"/></clipPath><clipPath id="c84ba110ba"><path d="M 139 223.257812 L 142 223.257812 L 142 243 L 139 243 Z M 139 223.257812 " clip-rule="nonzero"/></clipPath><clipPath id="5fad8a3b3c"><path d="M 141 223.257812 L 142.683594 223.257812 L 142.683594 231 L 141 231 Z M 141 223.257812 " clip-rule="nonzero"/></clipPath><clipPath id="e982ff9dbc"><path d="M 128 223.257812 L 133 223.257812 L 133 246 L 128 246 Z M 128 223.257812 " clip-rule="nonzero"/></clipPath><clipPath id="fa8e12e11f"><path d="M 128 223.257812 L 131 223.257812 L 131 232 L 128 232 Z M 128 223.257812 " clip-rule="nonzero"/></clipPath><clipPath id="1eb92f40f0"><path d="M 126 223.257812 L 127 223.257812 L 127 244 L 126 244 Z M 126 223.257812 " clip-rule="nonzero"/></clipPath><clipPath id="e4b35d3b96"><path d="M 125.433594 238 L 126 238 L 126 241 L 125.433594 241 Z M 125.433594 238 " clip-rule="nonzero"/></clipPath><clipPath id="8ee7076688"><path d="M 125.433594 242 L 128 242 L 128 245 L 125.433594 245 Z M 125.433594 242 " clip-rule="nonzero"/></clipPath><clipPath id="accba5e96d"><path d="M 138 245 L 141 245 L 141 247.257812 L 138 247.257812 Z M 138 245 " clip-rule="nonzero"/></clipPath><clipPath id="8a5dcd0fe5"><path d="M 140 242 L 142.683594 242 L 142.683594 244 L 140 244 Z M 140 242 " clip-rule="nonzero"/></clipPath><clipPath id="e978265fa5"><path d="M 141 229 L 142.683594 229 L 142.683594 232 L 141 232 Z M 141 229 " clip-rule="nonzero"/></clipPath></defs><g clip-path="url(#55d1545a41)"><g clip-path="url(#529133b35d)"><path stroke-linecap="butt" transform="matrix(0.75, 0, 0, 0.75, 73.1395, 15.943509)" fill="none" stroke-linejoin="miter" d="M 157.8765 3.14303 L 299.553583 85.570114 C 302.897333 87.51803 304.954625 91.096155 304.954625 94.960739 L 304.954625 259.893031 C 304.954625 263.762822 302.897333 267.335739 299.553583 269.283656 L 157.8765 351.710739 C 154.537958 353.653448 150.412958 353.653448 147.074416 351.710739 L 5.402541 269.283656 C 2.058791 267.335739 0.00149934 263.762822 0.00149934 259.893031 L 0.00149934 94.960739 C 0.00149934 91.096155 2.058791 87.51803 5.402541 85.570114 L 147.074416 3.14303 C 150.412958 1.200322 154.537958 1.200322 157.8765 3.14303 Z M 157.8765 3.14303 " stroke="#273a4e" stroke-width="12" stroke-opacity="1" stroke-miterlimit="4"/></g></g><g clip-path="url(#f895400fa2)"><path fill="#273a4e" d="M 266.019531 89.90625 C 265.632812 89.503906 265.105469 89.277344 264.550781 89.277344 C 231.605469 89.277344 207.441406 98.234375 192.726562 115.898438 C 179.039062 132.332031 176.871094 152.207031 177.054688 164.25 C 174.578125 160.039062 171.636719 155.964844 168.132812 152.175781 C 154.675781 137.613281 135.597656 130.230469 111.421875 130.230469 C 110.492188 130.230469 109.6875 130.855469 109.449219 131.746094 C 109.210938 132.644531 103.804688 153.867188 116.835938 170.789062 C 126.917969 183.886719 145.058594 190.523438 170.742188 190.523438 C 171.339844 190.523438 171.90625 190.261719 172.292969 189.808594 C 172.679688 189.359375 172.847656 188.757812 172.757812 188.167969 C 172.605469 187.214844 168.6875 164.609375 133.476562 150.511719 C 132.441406 150.09375 131.242188 150.597656 130.828125 151.648438 C 130.410156 152.691406 130.917969 153.878906 131.964844 154.296875 C 158.308594 164.847656 166.015625 180.496094 168.058594 186.421875 C 145.148438 185.984375 129.023438 179.90625 120.089844 168.335938 C 110.175781 155.488281 112.148438 139.308594 113.066406 134.320312 C 135.265625 134.644531 152.777344 141.574219 165.125 154.921875 C 188.558594 180.257812 185.695312 220.660156 185.660156 221.066406 C 185.574219 222.191406 186.414062 223.171875 187.535156 223.257812 C 187.589844 223.265625 187.644531 223.265625 187.695312 223.265625 C 188.75 223.265625 189.644531 222.457031 189.726562 221.386719 C 189.828125 220.09375 191.496094 196.785156 181.90625 173.960938 C 181.335938 170.273438 177.453125 140.605469 195.859375 118.507812 C 209.4375 102.207031 231.796875 93.753906 262.34375 93.367188 C 261.1875 105.570312 252.542969 165.804688 195.230469 167.203125 C 195.453125 160.039062 198.09375 134.859375 223.519531 120.242188 C 224.496094 119.679688 224.832031 118.433594 224.269531 117.457031 C 223.707031 116.480469 222.464844 116.144531 221.488281 116.703125 C 189.621094 135.027344 191.140625 169.035156 191.160156 169.378906 C 191.21875 170.457031 192.109375 171.304688 193.195312 171.304688 C 262.472656 171.304688 266.554688 92.203125 266.585938 91.402344 C 266.609375 90.847656 266.402344 90.304688 266.019531 89.90625 " fill-opacity="1" fill-rule="nonzero"/></g><path stroke-linecap="butt" transform="matrix(0.75, 0, 0, 0.75, 91.499998, 221.381587)" fill="none" stroke-linejoin="miter" d="M 0.00000201133 2.501634 L 254.90106 2.501634 " stroke="#273a4e" stroke-width="5" stroke-opacity="1" stroke-miterlimit="4"/><path stroke-linecap="butt" transform="matrix(0.621587, -0.419677, 0.419677, 0.621587, 213.654703, 122.387152)" fill="none" stroke-linejoin="miter" d="M -0.00100742 1.997035 L 10.278443 1.999534 " stroke="#273a4e" stroke-width="4" stroke-opacity="1" stroke-miterlimit="4"/><path stroke-linecap="round" transform="matrix(0.621587, -0.419677, 0.419677, 0.621587, 213.654703, 122.387152)" fill-opacity="1" fill="#273a4e" fill-rule="nonzero" stroke-linejoin="round" d="M 11.275706 -4.001084 L 19.278034 1.998861 L 11.273221 8.000277 Z M 11.275706 -4.001084 " stroke="#273a4e" stroke-width="4" stroke-opacity="1" stroke-miterlimit="4"/><g clip-path="url(#35602b5c28)"><path fill="#273a4e" d="M 177.457031 269.359375 L 177.457031 249.265625 L 181.972656 244.753906 L 181.972656 224.066406 L 183.0625 224.066406 L 183.0625 245.207031 L 178.550781 249.71875 L 178.550781 269.359375 Z M 177.457031 269.359375 " fill-opacity="1" fill-rule="nonzero"/></g><g clip-path="url(#7d4f5e85cc)"><path fill="#273a4e" d="M 187.246094 254.300781 L 187.246094 224.066406 L 188.335938 224.066406 L 188.335938 254.300781 Z M 187.246094 254.300781 " fill-opacity="1" fill-rule="nonzero"/></g><path fill="#273a4e" d="M 183.074219 267.53125 L 183.074219 250.59375 L 184.167969 250.59375 L 184.167969 267.53125 Z M 183.074219 267.53125 " fill-opacity="1" fill-rule="nonzero"/><g clip-path="url(#fd77023a6e)"><path fill="#273a4e" d="M 172.800781 263 L 172.800781 244.21875 L 176.296875 240.71875 L 176.296875 224.066406 L 177.386719 224.066406 L 177.386719 241.171875 L 173.890625 244.667969 L 173.890625 263 Z M 172.800781 263 " fill-opacity="1" fill-rule="nonzero"/></g><g clip-path="url(#8731da42b4)"><path fill="#273a4e" d="M 171.425781 237.886719 L 171.425781 224.066406 L 172.515625 224.066406 L 172.515625 237.886719 Z M 171.425781 237.886719 " fill-opacity="1" fill-rule="nonzero"/></g><g clip-path="url(#4c5e0a8f60)"><path fill="#273a4e" d="M 197.414062 268.175781 L 197.414062 246.554688 L 191.652344 243.230469 L 191.652344 224.066406 L 192.742188 224.066406 L 192.742188 242.597656 L 198.503906 245.925781 L 198.503906 268.175781 Z M 197.414062 268.175781 " fill-opacity="1" fill-rule="nonzero"/></g><path fill="#273a4e" d="M 193.15625 268.195312 L 193.15625 247.703125 L 194.25 247.703125 L 194.25 268.195312 Z M 193.15625 268.195312 " fill-opacity="1" fill-rule="nonzero"/><g clip-path="url(#25491dc907)"><path fill="#273a4e" d="M 196.140625 241.242188 L 196.140625 233.855469 L 199.0625 230.929688 L 199.0625 224.066406 L 200.15625 224.066406 L 200.15625 231.382812 L 197.230469 234.308594 L 197.230469 241.242188 Z M 196.140625 241.242188 " fill-opacity="1" fill-rule="nonzero"/></g><g clip-path="url(#1215ffef73)"><path fill="#273a4e" d="M 202.691406 264.582031 L 202.691406 224.066406 L 203.785156 224.066406 L 203.785156 264.582031 Z M 202.691406 264.582031 " fill-opacity="1" fill-rule="nonzero"/></g><g clip-path="url(#71ce324470)"><path fill="#273a4e" d="M 208.5 256.792969 C 208.5 256.585938 208.457031 256.382812 208.378906 256.1875 C 208.296875 255.992188 208.183594 255.820312 208.035156 255.671875 C 207.886719 255.523438 207.714844 255.410156 207.519531 255.328125 C 207.324219 255.25 207.125 255.207031 206.914062 255.207031 C 206.703125 255.207031 206.5 255.25 206.304688 255.328125 C 206.113281 255.410156 205.941406 255.523438 205.792969 255.671875 C 205.644531 255.820312 205.527344 255.992188 205.449219 256.1875 C 205.367188 256.382812 205.328125 256.585938 205.328125 256.792969 C 205.328125 257.003906 205.367188 257.207031 205.449219 257.402344 C 205.527344 257.59375 205.644531 257.765625 205.792969 257.914062 C 205.941406 258.066406 206.113281 258.179688 206.308594 258.257812 C 206.5 258.339844 206.703125 258.378906 206.914062 258.378906 C 207.125 258.378906 207.324219 258.339844 207.519531 258.257812 C 207.714844 258.179688 207.886719 258.066406 208.035156 257.914062 C 208.183594 257.765625 208.296875 257.597656 208.378906 257.402344 C 208.460938 257.207031 208.5 257.003906 208.5 256.792969 Z M 208.5 256.792969 " fill-opacity="1" fill-rule="nonzero"/></g><path fill="#273a4e" d="M 204.910156 264.972656 C 204.910156 264.761719 204.871094 264.558594 204.789062 264.363281 C 204.710938 264.167969 204.59375 264 204.445312 263.847656 C 204.296875 263.699219 204.125 263.585938 203.929688 263.503906 C 203.738281 263.425781 203.535156 263.386719 203.324219 263.386719 C 203.113281 263.386719 202.910156 263.425781 202.71875 263.503906 C 202.523438 263.585938 202.351562 263.699219 202.203125 263.847656 C 202.054688 264 201.941406 264.167969 201.859375 264.363281 C 201.777344 264.558594 201.738281 264.761719 201.738281 264.972656 C 201.738281 265.179688 201.78125 265.382812 201.859375 265.578125 C 201.941406 265.773438 202.054688 265.945312 202.203125 266.09375 C 202.351562 266.242188 202.523438 266.355469 202.71875 266.4375 C 202.910156 266.515625 203.113281 266.554688 203.324219 266.554688 C 203.535156 266.554688 203.738281 266.515625 203.929688 266.4375 C 204.125 266.355469 204.296875 266.242188 204.445312 266.09375 C 204.59375 265.945312 204.707031 265.773438 204.789062 265.578125 C 204.871094 265.382812 204.910156 265.179688 204.910156 264.972656 Z M 204.910156 264.972656 " fill-opacity="1" fill-rule="nonzero"/><path fill="#273a4e" d="M 199.496094 268.449219 C 199.496094 268.238281 199.457031 268.035156 199.375 267.839844 C 199.292969 267.648438 199.179688 267.476562 199.03125 267.328125 C 198.882812 267.179688 198.710938 267.0625 198.515625 266.984375 C 198.320312 266.902344 198.121094 266.863281 197.910156 266.863281 C 197.699219 266.863281 197.496094 266.902344 197.304688 266.984375 C 197.109375 267.0625 196.9375 267.179688 196.789062 267.328125 C 196.640625 267.476562 196.523438 267.648438 196.445312 267.84375 C 196.363281 268.035156 196.324219 268.238281 196.324219 268.449219 C 196.324219 268.660156 196.363281 268.859375 196.445312 269.054688 C 196.523438 269.25 196.640625 269.421875 196.789062 269.570312 C 196.9375 269.71875 197.109375 269.832031 197.304688 269.914062 C 197.496094 269.992188 197.699219 270.035156 197.910156 270.035156 C 198.121094 270.035156 198.320312 269.996094 198.515625 269.914062 C 198.710938 269.832031 198.882812 269.71875 199.03125 269.570312 C 199.179688 269.421875 199.292969 269.25 199.375 269.054688 C 199.457031 268.863281 199.496094 268.660156 199.496094 268.449219 Z M 199.496094 268.449219 " fill-opacity="1" fill-rule="nonzero"/><path fill="#273a4e" d="M 195.316406 268.449219 C 195.316406 268.238281 195.277344 268.035156 195.195312 267.84375 C 195.117188 267.648438 195 267.476562 194.851562 267.328125 C 194.703125 267.179688 194.53125 267.0625 194.339844 266.984375 C 194.144531 266.902344 193.941406 266.863281 193.730469 266.863281 C 193.523438 266.863281 193.320312 266.902344 193.125 266.984375 C 192.929688 267.0625 192.757812 267.179688 192.609375 267.328125 C 192.460938 267.476562 192.347656 267.648438 192.265625 267.84375 C 192.1875 268.035156 192.144531 268.238281 192.144531 268.449219 C 192.144531 268.660156 192.1875 268.859375 192.265625 269.054688 C 192.347656 269.25 192.460938 269.421875 192.609375 269.570312 C 192.757812 269.71875 192.929688 269.832031 193.125 269.914062 C 193.320312 269.992188 193.523438 270.035156 193.730469 270.035156 C 193.941406 270.035156 194.144531 269.992188 194.339844 269.914062 C 194.53125 269.832031 194.703125 269.71875 194.851562 269.570312 C 195 269.421875 195.117188 269.25 195.195312 269.054688 C 195.277344 268.863281 195.316406 268.660156 195.316406 268.449219 Z M 195.316406 268.449219 " fill-opacity="1" fill-rule="nonzero"/><path fill="#273a4e" d="M 185.1875 268.449219 C 185.1875 268.238281 185.144531 268.035156 185.066406 267.84375 C 184.984375 267.648438 184.871094 267.476562 184.722656 267.328125 C 184.574219 267.179688 184.402344 267.0625 184.207031 266.984375 C 184.011719 266.902344 183.8125 266.863281 183.601562 266.863281 C 183.390625 266.863281 183.1875 266.902344 182.992188 266.984375 C 182.800781 267.0625 182.628906 267.179688 182.480469 267.328125 C 182.332031 267.476562 182.214844 267.648438 182.136719 267.839844 C 182.054688 268.035156 182.015625 268.238281 182.015625 268.449219 C 182.015625 268.660156 182.054688 268.859375 182.136719 269.054688 C 182.214844 269.25 182.332031 269.421875 182.480469 269.570312 C 182.628906 269.71875 182.800781 269.832031 182.996094 269.914062 C 183.1875 269.996094 183.390625 270.035156 183.601562 270.035156 C 183.8125 270.035156 184.011719 269.992188 184.207031 269.914062 C 184.402344 269.832031 184.574219 269.71875 184.722656 269.570312 C 184.871094 269.421875 184.984375 269.25 185.066406 269.054688 C 185.144531 268.863281 185.1875 268.660156 185.1875 268.449219 Z M 185.1875 268.449219 " fill-opacity="1" fill-rule="nonzero"/><g clip-path="url(#c36e0d8433)"><path fill="#273a4e" d="M 179.535156 270.460938 C 179.535156 270.25 179.496094 270.046875 179.414062 269.851562 C 179.332031 269.660156 179.21875 269.488281 179.070312 269.339844 C 178.921875 269.191406 178.75 269.074219 178.554688 268.996094 C 178.363281 268.914062 178.160156 268.875 177.949219 268.875 C 177.738281 268.875 177.535156 268.914062 177.34375 268.996094 C 177.148438 269.074219 176.976562 269.191406 176.828125 269.339844 C 176.679688 269.488281 176.566406 269.660156 176.484375 269.851562 C 176.402344 270.046875 176.363281 270.25 176.363281 270.460938 C 176.363281 270.667969 176.402344 270.871094 176.484375 271.066406 C 176.566406 271.261719 176.679688 271.433594 176.828125 271.582031 C 176.976562 271.730469 177.148438 271.84375 177.34375 271.925781 C 177.539062 272.003906 177.738281 272.046875 177.949219 272.046875 C 178.160156 272.046875 178.363281 272.003906 178.554688 271.925781 C 178.75 271.84375 178.921875 271.730469 179.070312 271.582031 C 179.21875 271.433594 179.332031 271.261719 179.414062 271.066406 C 179.496094 270.871094 179.535156 270.667969 179.535156 270.460938 Z M 179.535156 270.460938 " fill-opacity="1" fill-rule="nonzero"/></g><path fill="#273a4e" d="M 174.976562 263.683594 C 174.976562 263.472656 174.933594 263.273438 174.855469 263.078125 C 174.773438 262.882812 174.660156 262.710938 174.511719 262.5625 C 174.363281 262.414062 174.191406 262.300781 173.996094 262.21875 C 173.800781 262.140625 173.597656 262.097656 173.390625 262.097656 C 173.179688 262.097656 172.976562 262.140625 172.78125 262.21875 C 172.585938 262.300781 172.417969 262.414062 172.269531 262.5625 C 172.121094 262.710938 172.003906 262.882812 171.925781 263.078125 C 171.84375 263.273438 171.804688 263.472656 171.804688 263.683594 C 171.804688 263.894531 171.84375 264.097656 171.925781 264.292969 C 172.003906 264.484375 172.117188 264.65625 172.269531 264.804688 C 172.417969 264.953125 172.589844 265.070312 172.78125 265.148438 C 172.976562 265.230469 173.179688 265.269531 173.390625 265.269531 C 173.597656 265.269531 173.800781 265.230469 173.996094 265.148438 C 174.191406 265.070312 174.363281 264.953125 174.511719 264.804688 C 174.660156 264.65625 174.773438 264.484375 174.855469 264.292969 C 174.933594 264.097656 174.972656 263.894531 174.976562 263.683594 Z M 174.976562 263.683594 " fill-opacity="1" fill-rule="nonzero"/><g clip-path="url(#45ea8d68b3)"><path fill="#273a4e" d="M 173.613281 238.082031 C 173.613281 237.871094 173.574219 237.671875 173.492188 237.476562 C 173.410156 237.28125 173.296875 237.109375 173.148438 236.960938 C 173 236.8125 172.828125 236.699219 172.632812 236.617188 C 172.441406 236.539062 172.238281 236.496094 172.027344 236.496094 C 171.816406 236.496094 171.613281 236.539062 171.421875 236.617188 C 171.226562 236.699219 171.054688 236.8125 170.90625 236.960938 C 170.757812 237.109375 170.644531 237.28125 170.5625 237.476562 C 170.480469 237.671875 170.441406 237.871094 170.441406 238.082031 C 170.441406 238.292969 170.480469 238.496094 170.5625 238.6875 C 170.640625 238.882812 170.757812 239.054688 170.90625 239.203125 C 171.054688 239.351562 171.226562 239.46875 171.421875 239.546875 C 171.613281 239.628906 171.816406 239.667969 172.027344 239.667969 C 172.238281 239.667969 172.441406 239.628906 172.632812 239.546875 C 172.828125 239.46875 173 239.351562 173.148438 239.203125 C 173.296875 239.054688 173.410156 238.882812 173.492188 238.691406 C 173.574219 238.496094 173.613281 238.292969 173.613281 238.082031 Z M 173.613281 238.082031 " fill-opacity="1" fill-rule="nonzero"/></g><path fill="#273a4e" d="M 189.421875 254.195312 C 189.421875 253.984375 189.378906 253.78125 189.300781 253.589844 C 189.21875 253.394531 189.105469 253.222656 188.957031 253.074219 C 188.808594 252.925781 188.636719 252.8125 188.441406 252.730469 C 188.246094 252.648438 188.042969 252.609375 187.835938 252.609375 C 187.625 252.609375 187.421875 252.648438 187.226562 252.730469 C 187.035156 252.8125 186.863281 252.925781 186.714844 253.074219 C 186.566406 253.222656 186.449219 253.394531 186.371094 253.589844 C 186.289062 253.78125 186.25 253.984375 186.25 254.195312 C 186.25 254.40625 186.289062 254.609375 186.371094 254.800781 C 186.449219 254.996094 186.566406 255.167969 186.714844 255.316406 C 186.863281 255.464844 187.035156 255.578125 187.226562 255.660156 C 187.421875 255.742188 187.625 255.78125 187.835938 255.78125 C 188.042969 255.78125 188.246094 255.742188 188.441406 255.660156 C 188.636719 255.582031 188.808594 255.464844 188.957031 255.316406 C 189.105469 255.167969 189.21875 254.996094 189.300781 254.800781 C 189.378906 254.609375 189.421875 254.40625 189.421875 254.195312 Z M 189.421875 254.195312 " fill-opacity="1" fill-rule="nonzero"/><path fill="#273a4e" d="M 185.261719 250.734375 C 185.261719 250.523438 185.222656 250.320312 185.140625 250.125 C 185.0625 249.933594 184.945312 249.761719 184.796875 249.613281 C 184.648438 249.464844 184.476562 249.347656 184.285156 249.269531 C 184.089844 249.1875 183.886719 249.148438 183.675781 249.148438 C 183.464844 249.148438 183.265625 249.1875 183.070312 249.269531 C 182.875 249.347656 182.703125 249.464844 182.554688 249.613281 C 182.40625 249.761719 182.292969 249.933594 182.210938 250.125 C 182.132812 250.320312 182.089844 250.523438 182.089844 250.734375 C 182.089844 250.945312 182.132812 251.144531 182.210938 251.339844 C 182.292969 251.535156 182.40625 251.707031 182.554688 251.855469 C 182.703125 252.003906 182.875 252.117188 183.070312 252.199219 C 183.265625 252.277344 183.464844 252.320312 183.675781 252.320312 C 183.886719 252.320312 184.089844 252.277344 184.285156 252.199219 C 184.476562 252.117188 184.648438 252.003906 184.796875 251.855469 C 184.945312 251.707031 185.0625 251.535156 185.140625 251.339844 C 185.222656 251.144531 185.261719 250.945312 185.261719 250.734375 Z M 185.261719 250.734375 " fill-opacity="1" fill-rule="nonzero"/><path fill="#273a4e" d="M 195.347656 247.894531 C 195.347656 247.683594 195.308594 247.480469 195.226562 247.289062 C 195.148438 247.09375 195.03125 246.921875 194.882812 246.773438 C 194.734375 246.625 194.5625 246.511719 194.367188 246.429688 C 194.175781 246.347656 193.972656 246.308594 193.761719 246.308594 C 193.550781 246.308594 193.351562 246.347656 193.15625 246.429688 C 192.960938 246.511719 192.789062 246.625 192.640625 246.773438 C 192.492188 246.921875 192.378906 247.09375 192.296875 247.289062 C 192.214844 247.480469 192.175781 247.683594 192.175781 247.894531 C 192.175781 248.105469 192.21875 248.308594 192.296875 248.5 C 192.378906 248.695312 192.492188 248.867188 192.640625 249.015625 C 192.789062 249.164062 192.960938 249.277344 193.15625 249.359375 C 193.351562 249.441406 193.550781 249.480469 193.761719 249.480469 C 193.972656 249.480469 194.175781 249.441406 194.367188 249.359375 C 194.5625 249.277344 194.734375 249.164062 194.882812 249.015625 C 195.03125 248.867188 195.148438 248.695312 195.226562 248.5 C 195.308594 248.308594 195.347656 248.105469 195.347656 247.894531 Z M 195.347656 247.894531 " fill-opacity="1" fill-rule="nonzero"/><path fill="#273a4e" d="M 198.347656 241.085938 C 198.347656 240.878906 198.308594 240.675781 198.226562 240.480469 C 198.144531 240.285156 198.03125 240.113281 197.882812 239.964844 C 197.734375 239.816406 197.5625 239.703125 197.367188 239.621094 C 197.175781 239.542969 196.972656 239.5 196.761719 239.5 C 196.550781 239.5 196.347656 239.542969 196.15625 239.621094 C 195.960938 239.703125 195.789062 239.816406 195.640625 239.964844 C 195.492188 240.113281 195.375 240.285156 195.296875 240.480469 C 195.214844 240.675781 195.175781 240.878906 195.175781 241.085938 C 195.175781 241.296875 195.214844 241.5 195.296875 241.695312 C 195.378906 241.886719 195.492188 242.058594 195.640625 242.207031 C 195.789062 242.355469 195.960938 242.472656 196.15625 242.550781 C 196.347656 242.632812 196.550781 242.671875 196.761719 242.671875 C 196.972656 242.671875 197.175781 242.632812 197.367188 242.550781 C 197.5625 242.472656 197.734375 242.359375 197.882812 242.207031 C 198.03125 242.058594 198.144531 241.890625 198.226562 241.695312 C 198.308594 241.5 198.347656 241.296875 198.347656 241.085938 Z M 198.347656 241.085938 " fill-opacity="1" fill-rule="nonzero"/><g clip-path="url(#db0dcdff67)"><path fill="#273a4e" d="M 210.960938 254.1875 L 210.960938 240.824219 L 213.964844 237.824219 L 213.964844 224.066406 L 214.691406 224.066406 L 214.691406 238.125 L 211.6875 241.125 L 211.6875 254.1875 Z M 210.960938 254.1875 " fill-opacity="1" fill-rule="nonzero"/></g><g clip-path="url(#55450d15d8)"><path fill="#273a4e" d="M 217.472656 244.175781 L 217.472656 224.066406 L 218.199219 224.066406 L 218.199219 244.175781 Z M 217.472656 244.175781 " fill-opacity="1" fill-rule="nonzero"/></g><path fill="#273a4e" d="M 214.699219 252.976562 L 214.699219 241.707031 L 215.425781 241.707031 L 215.425781 252.976562 Z M 214.699219 252.976562 " fill-opacity="1" fill-rule="nonzero"/><g clip-path="url(#a475b69507)"><path fill="#273a4e" d="M 207.863281 249.960938 L 207.863281 237.46875 L 210.1875 235.140625 L 210.1875 224.066406 L 210.914062 224.066406 L 210.914062 235.441406 L 208.589844 237.769531 L 208.589844 249.960938 Z M 207.863281 249.960938 " fill-opacity="1" fill-rule="nonzero"/></g><g clip-path="url(#c3c13b9baf)"><path fill="#273a4e" d="M 206.949219 233.257812 L 206.949219 224.066406 L 207.675781 224.066406 L 207.675781 233.257812 Z M 206.949219 233.257812 " fill-opacity="1" fill-rule="nonzero"/></g><g clip-path="url(#2e8e72db6b)"><path fill="#273a4e" d="M 224.234375 253.40625 L 224.234375 239.023438 L 220.402344 236.8125 L 220.402344 224.066406 L 221.128906 224.066406 L 221.128906 236.390625 L 224.960938 238.601562 L 224.960938 253.40625 Z M 224.234375 253.40625 " fill-opacity="1" fill-rule="nonzero"/></g><path fill="#273a4e" d="M 221.402344 253.414062 L 221.402344 239.785156 L 222.128906 239.785156 L 222.128906 253.414062 Z M 221.402344 253.414062 " fill-opacity="1" fill-rule="nonzero"/><g clip-path="url(#6b0371c933)"><path fill="#273a4e" d="M 223.386719 235.488281 L 223.386719 230.574219 L 225.332031 228.632812 L 225.332031 224.066406 L 226.058594 224.066406 L 226.058594 228.933594 L 224.113281 230.875 L 224.113281 235.488281 Z M 223.386719 235.488281 " fill-opacity="1" fill-rule="nonzero"/></g><g clip-path="url(#c33e818ba1)"><path fill="#273a4e" d="M 227.746094 251.011719 L 227.746094 224.066406 L 228.472656 224.066406 L 228.472656 251.011719 Z M 227.746094 251.011719 " fill-opacity="1" fill-rule="nonzero"/></g><g clip-path="url(#24d43952e8)"><path fill="#273a4e" d="M 231.609375 245.832031 C 231.609375 245.691406 231.582031 245.558594 231.527344 245.429688 C 231.472656 245.300781 231.398438 245.1875 231.300781 245.085938 C 231.199219 244.988281 231.085938 244.914062 230.957031 244.859375 C 230.828125 244.804688 230.691406 244.777344 230.554688 244.777344 C 230.414062 244.777344 230.277344 244.804688 230.148438 244.859375 C 230.019531 244.914062 229.90625 244.988281 229.808594 245.085938 C 229.707031 245.1875 229.632812 245.300781 229.578125 245.429688 C 229.527344 245.558594 229.5 245.691406 229.5 245.832031 C 229.5 245.972656 229.527344 246.109375 229.578125 246.238281 C 229.632812 246.367188 229.707031 246.480469 229.808594 246.578125 C 229.90625 246.679688 230.019531 246.753906 230.148438 246.808594 C 230.277344 246.859375 230.414062 246.886719 230.554688 246.886719 C 230.695312 246.886719 230.828125 246.859375 230.957031 246.808594 C 231.085938 246.753906 231.199219 246.679688 231.300781 246.578125 C 231.398438 246.480469 231.472656 246.367188 231.527344 246.238281 C 231.582031 246.109375 231.609375 245.972656 231.609375 245.832031 Z M 231.609375 245.832031 " fill-opacity="1" fill-rule="nonzero"/></g><g clip-path="url(#742d6b2578)"><path fill="#273a4e" d="M 229.222656 251.269531 C 229.222656 251.132812 229.195312 250.996094 229.140625 250.867188 C 229.085938 250.738281 229.011719 250.625 228.914062 250.527344 C 228.8125 250.425781 228.699219 250.351562 228.570312 250.296875 C 228.441406 250.242188 228.304688 250.214844 228.167969 250.214844 C 228.027344 250.214844 227.890625 250.242188 227.761719 250.296875 C 227.632812 250.351562 227.519531 250.425781 227.421875 250.527344 C 227.320312 250.625 227.246094 250.738281 227.191406 250.867188 C 227.136719 250.996094 227.113281 251.132812 227.113281 251.269531 C 227.113281 251.410156 227.136719 251.546875 227.191406 251.675781 C 227.246094 251.804688 227.320312 251.917969 227.421875 252.015625 C 227.519531 252.117188 227.632812 252.191406 227.761719 252.246094 C 227.890625 252.300781 228.027344 252.324219 228.167969 252.324219 C 228.304688 252.324219 228.441406 252.300781 228.570312 252.246094 C 228.699219 252.191406 228.8125 252.117188 228.910156 252.015625 C 229.011719 251.917969 229.085938 251.804688 229.140625 251.675781 C 229.195312 251.546875 229.222656 251.410156 229.222656 251.269531 Z M 229.222656 251.269531 " fill-opacity="1" fill-rule="nonzero"/></g><path fill="#273a4e" d="M 225.621094 253.585938 C 225.621094 253.445312 225.59375 253.308594 225.539062 253.179688 C 225.484375 253.050781 225.410156 252.9375 225.3125 252.839844 C 225.210938 252.738281 225.097656 252.664062 224.96875 252.609375 C 224.839844 252.558594 224.703125 252.53125 224.566406 252.53125 C 224.425781 252.53125 224.289062 252.558594 224.160156 252.609375 C 224.03125 252.664062 223.917969 252.738281 223.820312 252.839844 C 223.71875 252.9375 223.644531 253.050781 223.589844 253.179688 C 223.535156 253.308594 223.511719 253.445312 223.511719 253.585938 C 223.511719 253.722656 223.535156 253.859375 223.589844 253.988281 C 223.644531 254.117188 223.71875 254.230469 223.820312 254.332031 C 223.917969 254.429688 224.03125 254.503906 224.160156 254.558594 C 224.289062 254.613281 224.425781 254.640625 224.566406 254.640625 C 224.703125 254.640625 224.839844 254.613281 224.96875 254.558594 C 225.097656 254.503906 225.210938 254.429688 225.3125 254.332031 C 225.410156 254.230469 225.484375 254.117188 225.539062 253.988281 C 225.59375 253.859375 225.621094 253.722656 225.621094 253.585938 Z M 225.621094 253.585938 " fill-opacity="1" fill-rule="nonzero"/><path fill="#273a4e" d="M 222.839844 253.585938 C 222.839844 253.445312 222.8125 253.308594 222.761719 253.179688 C 222.707031 253.050781 222.628906 252.9375 222.53125 252.839844 C 222.433594 252.738281 222.320312 252.664062 222.191406 252.609375 C 222.0625 252.558594 221.925781 252.53125 221.785156 252.53125 C 221.644531 252.53125 221.511719 252.558594 221.382812 252.609375 C 221.253906 252.664062 221.140625 252.738281 221.039062 252.839844 C 220.941406 252.9375 220.863281 253.050781 220.8125 253.179688 C 220.757812 253.308594 220.730469 253.445312 220.730469 253.585938 C 220.730469 253.722656 220.757812 253.859375 220.8125 253.988281 C 220.863281 254.117188 220.941406 254.230469 221.039062 254.332031 C 221.140625 254.429688 221.253906 254.503906 221.382812 254.558594 C 221.511719 254.613281 221.644531 254.640625 221.785156 254.640625 C 221.925781 254.640625 222.058594 254.613281 222.191406 254.558594 C 222.320312 254.503906 222.433594 254.429688 222.53125 254.332031 C 222.628906 254.230469 222.707031 254.117188 222.761719 253.988281 C 222.8125 253.859375 222.839844 253.722656 222.839844 253.585938 Z M 222.839844 253.585938 " fill-opacity="1" fill-rule="nonzero"/><path fill="#273a4e" d="M 216.101562 253.585938 C 216.101562 253.445312 216.074219 253.308594 216.023438 253.179688 C 215.96875 253.050781 215.890625 252.9375 215.792969 252.839844 C 215.695312 252.738281 215.582031 252.664062 215.453125 252.609375 C 215.320312 252.558594 215.1875 252.53125 215.046875 252.53125 C 214.90625 252.53125 214.773438 252.558594 214.644531 252.609375 C 214.515625 252.664062 214.402344 252.738281 214.300781 252.839844 C 214.203125 252.9375 214.128906 253.050781 214.074219 253.179688 C 214.019531 253.308594 213.992188 253.445312 213.992188 253.585938 C 213.992188 253.722656 214.019531 253.859375 214.074219 253.988281 C 214.128906 254.117188 214.203125 254.230469 214.300781 254.332031 C 214.402344 254.429688 214.515625 254.503906 214.644531 254.558594 C 214.773438 254.613281 214.90625 254.640625 215.046875 254.640625 C 215.1875 254.640625 215.324219 254.613281 215.453125 254.558594 C 215.582031 254.503906 215.695312 254.429688 215.792969 254.332031 C 215.894531 254.230469 215.96875 254.117188 216.023438 253.988281 C 216.074219 253.859375 216.101562 253.722656 216.101562 253.585938 Z M 216.101562 253.585938 " fill-opacity="1" fill-rule="nonzero"/><path fill="#273a4e" d="M 212.34375 254.921875 C 212.34375 254.78125 212.316406 254.648438 212.261719 254.519531 C 212.210938 254.390625 212.132812 254.273438 212.035156 254.175781 C 211.9375 254.078125 211.820312 254 211.691406 253.949219 C 211.5625 253.894531 211.429688 253.867188 211.289062 253.867188 C 211.148438 253.867188 211.015625 253.894531 210.886719 253.949219 C 210.757812 254 210.640625 254.078125 210.542969 254.175781 C 210.445312 254.273438 210.367188 254.390625 210.316406 254.519531 C 210.261719 254.648438 210.234375 254.78125 210.234375 254.921875 C 210.234375 255.0625 210.261719 255.195312 210.316406 255.324219 C 210.367188 255.453125 210.445312 255.570312 210.542969 255.667969 C 210.640625 255.765625 210.757812 255.84375 210.886719 255.894531 C 211.015625 255.949219 211.148438 255.976562 211.289062 255.976562 C 211.429688 255.976562 211.5625 255.949219 211.691406 255.898438 C 211.820312 255.84375 211.9375 255.765625 212.035156 255.667969 C 212.132812 255.570312 212.210938 255.453125 212.261719 255.324219 C 212.316406 255.195312 212.34375 255.0625 212.34375 254.921875 Z M 212.34375 254.921875 " fill-opacity="1" fill-rule="nonzero"/><path fill="#273a4e" d="M 209.308594 250.414062 C 209.308594 250.277344 209.285156 250.140625 209.230469 250.011719 C 209.175781 249.882812 209.101562 249.769531 209 249.671875 C 208.902344 249.570312 208.789062 249.496094 208.660156 249.441406 C 208.53125 249.386719 208.394531 249.363281 208.253906 249.359375 C 208.117188 249.359375 207.980469 249.386719 207.851562 249.441406 C 207.722656 249.496094 207.609375 249.570312 207.511719 249.671875 C 207.410156 249.769531 207.335938 249.882812 207.28125 250.011719 C 207.226562 250.140625 207.199219 250.277344 207.199219 250.414062 C 207.199219 250.554688 207.226562 250.691406 207.28125 250.820312 C 207.335938 250.949219 207.410156 251.0625 207.511719 251.160156 C 207.609375 251.261719 207.722656 251.335938 207.851562 251.390625 C 207.980469 251.445312 208.117188 251.46875 208.253906 251.46875 C 208.394531 251.46875 208.53125 251.445312 208.660156 251.390625 C 208.789062 251.335938 208.902344 251.261719 209 251.160156 C 209.101562 251.0625 209.175781 250.949219 209.230469 250.820312 C 209.285156 250.691406 209.308594 250.554688 209.308594 250.414062 Z M 209.308594 250.414062 " fill-opacity="1" fill-rule="nonzero"/><g clip-path="url(#1f6436c98e)"><path fill="#273a4e" d="M 208.40625 233.386719 C 208.40625 233.246094 208.378906 233.113281 208.324219 232.984375 C 208.269531 232.855469 208.195312 232.742188 208.097656 232.640625 C 207.996094 232.542969 207.882812 232.464844 207.753906 232.414062 C 207.625 232.359375 207.488281 232.332031 207.351562 232.332031 C 207.210938 232.332031 207.074219 232.359375 206.945312 232.414062 C 206.816406 232.464844 206.703125 232.542969 206.605469 232.640625 C 206.503906 232.742188 206.429688 232.855469 206.375 232.984375 C 206.320312 233.113281 206.296875 233.246094 206.296875 233.386719 C 206.296875 233.527344 206.320312 233.660156 206.375 233.792969 C 206.429688 233.921875 206.503906 234.035156 206.605469 234.132812 C 206.703125 234.230469 206.816406 234.308594 206.945312 234.363281 C 207.074219 234.414062 207.210938 234.441406 207.351562 234.441406 C 207.488281 234.441406 207.625 234.414062 207.753906 234.363281 C 207.882812 234.308594 207.996094 234.230469 208.097656 234.132812 C 208.195312 234.035156 208.269531 233.921875 208.324219 233.792969 C 208.378906 233.660156 208.40625 233.527344 208.40625 233.386719 Z M 208.40625 233.386719 " fill-opacity="1" fill-rule="nonzero"/></g><path fill="#273a4e" d="M 218.917969 244.105469 C 218.917969 243.964844 218.890625 243.832031 218.839844 243.699219 C 218.785156 243.570312 218.707031 243.457031 218.609375 243.359375 C 218.511719 243.261719 218.394531 243.183594 218.265625 243.128906 C 218.136719 243.078125 218.003906 243.050781 217.863281 243.050781 C 217.722656 243.050781 217.589844 243.078125 217.460938 243.128906 C 217.332031 243.183594 217.21875 243.261719 217.117188 243.359375 C 217.019531 243.457031 216.941406 243.570312 216.890625 243.699219 C 216.835938 243.832031 216.808594 243.964844 216.808594 244.105469 C 216.808594 244.246094 216.835938 244.378906 216.890625 244.507812 C 216.941406 244.636719 217.019531 244.75 217.117188 244.851562 C 217.21875 244.949219 217.332031 245.023438 217.460938 245.078125 C 217.589844 245.132812 217.722656 245.160156 217.863281 245.160156 C 218.003906 245.160156 218.136719 245.132812 218.265625 245.078125 C 218.394531 245.027344 218.511719 244.949219 218.609375 244.851562 C 218.707031 244.75 218.785156 244.636719 218.839844 244.507812 C 218.890625 244.378906 218.917969 244.246094 218.917969 244.105469 Z M 218.917969 244.105469 " fill-opacity="1" fill-rule="nonzero"/><path fill="#273a4e" d="M 216.152344 241.800781 C 216.152344 241.660156 216.125 241.527344 216.074219 241.398438 C 216.019531 241.269531 215.941406 241.15625 215.84375 241.054688 C 215.746094 240.957031 215.632812 240.878906 215.5 240.828125 C 215.371094 240.773438 215.238281 240.746094 215.097656 240.746094 C 214.957031 240.746094 214.824219 240.773438 214.695312 240.828125 C 214.566406 240.882812 214.449219 240.957031 214.351562 241.054688 C 214.253906 241.15625 214.175781 241.269531 214.125 241.398438 C 214.070312 241.527344 214.042969 241.660156 214.042969 241.800781 C 214.042969 241.941406 214.070312 242.074219 214.125 242.207031 C 214.175781 242.335938 214.253906 242.449219 214.351562 242.546875 C 214.453125 242.644531 214.566406 242.722656 214.695312 242.777344 C 214.824219 242.828125 214.957031 242.855469 215.097656 242.855469 C 215.238281 242.855469 215.371094 242.828125 215.5 242.777344 C 215.632812 242.722656 215.746094 242.648438 215.84375 242.546875 C 215.941406 242.449219 216.019531 242.335938 216.074219 242.207031 C 216.125 242.078125 216.152344 241.941406 216.152344 241.800781 Z M 216.152344 241.800781 " fill-opacity="1" fill-rule="nonzero"/><path fill="#273a4e" d="M 222.859375 239.914062 C 222.859375 239.773438 222.835938 239.640625 222.78125 239.511719 C 222.726562 239.378906 222.652344 239.265625 222.550781 239.167969 C 222.453125 239.070312 222.339844 238.992188 222.210938 238.9375 C 222.082031 238.886719 221.945312 238.859375 221.804688 238.859375 C 221.667969 238.859375 221.53125 238.886719 221.402344 238.9375 C 221.273438 238.992188 221.160156 239.070312 221.058594 239.167969 C 220.960938 239.265625 220.886719 239.378906 220.832031 239.511719 C 220.777344 239.640625 220.75 239.773438 220.75 239.914062 C 220.75 240.054688 220.777344 240.1875 220.832031 240.316406 C 220.886719 240.445312 220.960938 240.558594 221.0625 240.660156 C 221.160156 240.757812 221.273438 240.835938 221.402344 240.886719 C 221.53125 240.941406 221.667969 240.96875 221.804688 240.96875 C 221.945312 240.96875 222.082031 240.941406 222.210938 240.886719 C 222.339844 240.835938 222.453125 240.757812 222.550781 240.660156 C 222.652344 240.558594 222.726562 240.445312 222.78125 240.316406 C 222.835938 240.1875 222.859375 240.054688 222.859375 239.914062 Z M 222.859375 239.914062 " fill-opacity="1" fill-rule="nonzero"/><path fill="#273a4e" d="M 224.855469 235.386719 C 224.855469 235.246094 224.828125 235.113281 224.777344 234.984375 C 224.722656 234.851562 224.644531 234.738281 224.546875 234.640625 C 224.449219 234.542969 224.332031 234.464844 224.203125 234.410156 C 224.074219 234.359375 223.941406 234.332031 223.800781 234.332031 C 223.660156 234.332031 223.527344 234.359375 223.398438 234.410156 C 223.269531 234.464844 223.152344 234.542969 223.054688 234.640625 C 222.957031 234.738281 222.878906 234.851562 222.828125 234.984375 C 222.773438 235.113281 222.746094 235.246094 222.746094 235.386719 C 222.746094 235.527344 222.773438 235.660156 222.828125 235.789062 C 222.878906 235.917969 222.957031 236.03125 223.054688 236.132812 C 223.15625 236.230469 223.269531 236.308594 223.398438 236.359375 C 223.527344 236.414062 223.660156 236.441406 223.800781 236.441406 C 223.941406 236.441406 224.074219 236.414062 224.203125 236.359375 C 224.335938 236.308594 224.449219 236.230469 224.546875 236.132812 C 224.644531 236.03125 224.722656 235.917969 224.777344 235.789062 C 224.828125 235.660156 224.855469 235.527344 224.855469 235.386719 Z M 224.855469 235.386719 " fill-opacity="1" fill-rule="nonzero"/><g clip-path="url(#db5ccd162b)"><path fill="#273a4e" d="M 235.527344 246.710938 L 235.527344 236.664062 L 237.785156 234.40625 L 237.785156 224.066406 L 238.332031 224.066406 L 238.332031 234.632812 L 236.074219 236.890625 L 236.074219 246.710938 Z M 235.527344 246.710938 " fill-opacity="1" fill-rule="nonzero"/></g><g clip-path="url(#031364ed67)"><path fill="#273a4e" d="M 240.421875 239.179688 L 240.421875 224.066406 L 240.96875 224.066406 L 240.96875 239.179688 Z M 240.421875 239.179688 " fill-opacity="1" fill-rule="nonzero"/></g><path fill="#273a4e" d="M 238.335938 245.796875 L 238.335938 237.328125 L 238.882812 237.328125 L 238.882812 245.796875 Z M 238.335938 245.796875 " fill-opacity="1" fill-rule="nonzero"/><g clip-path="url(#e54cdb2ec4)"><path fill="#273a4e" d="M 233.199219 243.53125 L 233.199219 234.140625 L 234.949219 232.390625 L 234.949219 224.066406 L 235.496094 224.066406 L 235.496094 232.617188 L 233.746094 234.367188 L 233.746094 243.53125 Z M 233.199219 243.53125 " fill-opacity="1" fill-rule="nonzero"/></g><g clip-path="url(#802915d745)"><path fill="#273a4e" d="M 232.511719 230.972656 L 232.511719 224.066406 L 233.058594 224.066406 L 233.058594 230.972656 Z M 232.511719 230.972656 " fill-opacity="1" fill-rule="nonzero"/></g><g clip-path="url(#51979e23c1)"><path fill="#273a4e" d="M 245.507812 246.121094 L 245.507812 235.308594 L 242.625 233.644531 L 242.625 224.066406 L 243.171875 224.066406 L 243.171875 233.332031 L 246.050781 234.992188 L 246.050781 246.121094 Z M 245.507812 246.121094 " fill-opacity="1" fill-rule="nonzero"/></g><path fill="#273a4e" d="M 243.378906 246.128906 L 243.378906 235.882812 L 243.925781 235.882812 L 243.925781 246.128906 Z M 243.378906 246.128906 " fill-opacity="1" fill-rule="nonzero"/><g clip-path="url(#1b0b1cba05)"><path fill="#273a4e" d="M 244.871094 232.652344 L 244.871094 228.957031 L 246.332031 227.496094 L 246.332031 224.066406 L 246.878906 224.066406 L 246.878906 227.722656 L 245.414062 229.183594 L 245.414062 232.652344 Z M 244.871094 232.652344 " fill-opacity="1" fill-rule="nonzero"/></g><g clip-path="url(#9a1a32fdc5)"><path fill="#273a4e" d="M 248.144531 244.324219 L 248.144531 224.066406 L 248.691406 224.066406 L 248.691406 244.324219 Z M 248.144531 244.324219 " fill-opacity="1" fill-rule="nonzero"/></g><g clip-path="url(#d3b54d5bba)"><path fill="#273a4e" d="M 251.050781 240.429688 C 251.050781 240.210938 250.972656 240.023438 250.816406 239.867188 C 250.664062 239.710938 250.476562 239.636719 250.257812 239.636719 C 250.039062 239.636719 249.851562 239.710938 249.695312 239.867188 C 249.542969 240.023438 249.464844 240.210938 249.464844 240.429688 C 249.464844 240.648438 249.542969 240.835938 249.695312 240.988281 C 249.851562 241.144531 250.039062 241.222656 250.257812 241.222656 C 250.476562 241.222656 250.664062 241.144531 250.816406 240.988281 C 250.972656 240.835938 251.050781 240.648438 251.050781 240.429688 Z M 251.050781 240.429688 " fill-opacity="1" fill-rule="nonzero"/></g><g clip-path="url(#6eaf598f73)"><path fill="#273a4e" d="M 249.253906 244.515625 C 249.253906 244.296875 249.179688 244.109375 249.023438 243.957031 C 248.867188 243.800781 248.679688 243.722656 248.460938 243.722656 C 248.242188 243.722656 248.054688 243.800781 247.902344 243.957031 C 247.746094 244.109375 247.667969 244.296875 247.667969 244.515625 C 247.667969 244.734375 247.746094 244.921875 247.902344 245.078125 C 248.054688 245.230469 248.242188 245.308594 248.460938 245.308594 C 248.679688 245.308594 248.867188 245.230469 249.023438 245.078125 C 249.175781 244.921875 249.253906 244.734375 249.253906 244.515625 Z M 249.253906 244.515625 " fill-opacity="1" fill-rule="nonzero"/></g><path fill="#273a4e" d="M 246.546875 246.253906 C 246.546875 246.035156 246.46875 245.847656 246.316406 245.695312 C 246.160156 245.539062 245.972656 245.460938 245.753906 245.460938 C 245.535156 245.460938 245.347656 245.539062 245.195312 245.695312 C 245.039062 245.847656 244.960938 246.035156 244.960938 246.253906 C 244.960938 246.472656 245.039062 246.660156 245.195312 246.816406 C 245.347656 246.972656 245.535156 247.046875 245.753906 247.046875 C 245.972656 247.046875 246.160156 246.972656 246.316406 246.816406 C 246.46875 246.660156 246.546875 246.472656 246.546875 246.253906 Z M 246.546875 246.253906 " fill-opacity="1" fill-rule="nonzero"/><path fill="#273a4e" d="M 244.457031 246.253906 C 244.457031 246.035156 244.382812 245.847656 244.226562 245.695312 C 244.070312 245.539062 243.886719 245.460938 243.664062 245.460938 C 243.445312 245.460938 243.261719 245.539062 243.105469 245.695312 C 242.949219 245.847656 242.871094 246.035156 242.875 246.253906 C 242.871094 246.472656 242.949219 246.660156 243.105469 246.816406 C 243.261719 246.972656 243.445312 247.046875 243.664062 247.046875 C 243.886719 247.046875 244.070312 246.972656 244.226562 246.816406 C 244.382812 246.660156 244.460938 246.472656 244.457031 246.253906 Z M 244.457031 246.253906 " fill-opacity="1" fill-rule="nonzero"/><path fill="#273a4e" d="M 239.394531 246.253906 C 239.394531 246.035156 239.316406 245.847656 239.160156 245.695312 C 239.007812 245.539062 238.820312 245.460938 238.601562 245.460938 C 238.382812 245.460938 238.195312 245.539062 238.039062 245.695312 C 237.886719 245.847656 237.808594 246.035156 237.808594 246.253906 C 237.808594 246.472656 237.886719 246.660156 238.039062 246.816406 C 238.195312 246.972656 238.382812 247.046875 238.601562 247.046875 C 238.820312 247.046875 239.007812 246.972656 239.160156 246.816406 C 239.316406 246.660156 239.394531 246.472656 239.394531 246.253906 Z M 239.394531 246.253906 " fill-opacity="1" fill-rule="nonzero"/><g clip-path="url(#83aa0f9235)"><path fill="#273a4e" d="M 236.566406 247.261719 C 236.566406 247.042969 236.488281 246.855469 236.335938 246.699219 C 236.179688 246.546875 235.992188 246.46875 235.773438 246.46875 C 235.554688 246.46875 235.367188 246.546875 235.214844 246.699219 C 235.058594 246.855469 234.980469 247.042969 234.980469 247.261719 C 234.980469 247.480469 235.058594 247.667969 235.214844 247.820312 C 235.367188 247.976562 235.554688 248.054688 235.773438 248.054688 C 235.992188 248.054688 236.179688 247.976562 236.335938 247.820312 C 236.488281 247.667969 236.566406 247.480469 236.566406 247.261719 Z M 236.566406 247.261719 " fill-opacity="1" fill-rule="nonzero"/></g><g clip-path="url(#4855d40182)"><path fill="#273a4e" d="M 234.289062 243.875 C 234.289062 243.65625 234.210938 243.46875 234.054688 243.3125 C 233.898438 243.15625 233.714844 243.082031 233.496094 243.082031 C 233.273438 243.082031 233.089844 243.15625 232.933594 243.3125 C 232.777344 243.46875 232.703125 243.65625 232.703125 243.875 C 232.703125 244.09375 232.777344 244.277344 232.933594 244.433594 C 233.089844 244.589844 233.277344 244.667969 233.496094 244.667969 C 233.714844 244.667969 233.898438 244.589844 234.054688 244.433594 C 234.210938 244.277344 234.289062 244.09375 234.289062 243.875 Z M 234.289062 243.875 " fill-opacity="1" fill-rule="nonzero"/></g><g clip-path="url(#01ad693c64)"><path fill="#273a4e" d="M 233.605469 231.074219 C 233.605469 230.851562 233.527344 230.667969 233.375 230.511719 C 233.21875 230.355469 233.03125 230.28125 232.8125 230.28125 C 232.59375 230.28125 232.40625 230.355469 232.253906 230.511719 C 232.097656 230.667969 232.019531 230.851562 232.019531 231.074219 C 232.019531 231.292969 232.097656 231.476562 232.253906 231.632812 C 232.40625 231.789062 232.59375 231.863281 232.8125 231.863281 C 233.03125 231.863281 233.21875 231.789062 233.375 231.632812 C 233.527344 231.476562 233.605469 231.292969 233.605469 231.074219 Z M 233.605469 231.074219 " fill-opacity="1" fill-rule="nonzero"/></g><path fill="#273a4e" d="M 241.511719 239.128906 C 241.511719 238.910156 241.433594 238.722656 241.277344 238.566406 C 241.121094 238.414062 240.9375 238.335938 240.71875 238.335938 C 240.5 238.335938 240.3125 238.414062 240.15625 238.566406 C 240 238.722656 239.925781 238.910156 239.925781 239.128906 C 239.925781 239.347656 240 239.535156 240.15625 239.6875 C 240.3125 239.84375 240.5 239.921875 240.71875 239.921875 C 240.9375 239.921875 241.121094 239.84375 241.277344 239.691406 C 241.433594 239.535156 241.511719 239.347656 241.511719 239.128906 Z M 241.511719 239.128906 " fill-opacity="1" fill-rule="nonzero"/><path fill="#273a4e" d="M 239.429688 237.398438 C 239.429688 237.179688 239.355469 236.992188 239.199219 236.835938 C 239.042969 236.683594 238.855469 236.605469 238.636719 236.605469 C 238.417969 236.605469 238.230469 236.683594 238.078125 236.835938 C 237.921875 236.992188 237.84375 237.179688 237.84375 237.398438 C 237.84375 237.617188 237.921875 237.804688 238.078125 237.957031 C 238.234375 238.113281 238.417969 238.191406 238.636719 238.191406 C 238.855469 238.191406 239.042969 238.113281 239.199219 237.957031 C 239.355469 237.804688 239.429688 237.617188 239.429688 237.398438 Z M 239.429688 237.398438 " fill-opacity="1" fill-rule="nonzero"/><path fill="#273a4e" d="M 244.472656 235.976562 C 244.472656 235.757812 244.394531 235.574219 244.242188 235.417969 C 244.085938 235.261719 243.898438 235.183594 243.679688 235.183594 C 243.460938 235.183594 243.273438 235.261719 243.121094 235.417969 C 242.964844 235.574219 242.886719 235.757812 242.886719 235.976562 C 242.886719 236.195312 242.964844 236.382812 243.121094 236.539062 C 243.273438 236.695312 243.460938 236.769531 243.679688 236.769531 C 243.898438 236.769531 244.085938 236.695312 244.242188 236.539062 C 244.398438 236.382812 244.472656 236.195312 244.472656 235.976562 Z M 244.472656 235.976562 " fill-opacity="1" fill-rule="nonzero"/><path fill="#273a4e" d="M 245.972656 232.574219 C 245.972656 232.355469 245.894531 232.167969 245.742188 232.015625 C 245.585938 231.859375 245.398438 231.78125 245.179688 231.78125 C 244.960938 231.78125 244.773438 231.859375 244.621094 232.015625 C 244.464844 232.167969 244.386719 232.355469 244.386719 232.574219 C 244.386719 232.792969 244.464844 232.980469 244.621094 233.136719 C 244.773438 233.289062 244.960938 233.367188 245.179688 233.367188 C 245.398438 233.367188 245.585938 233.289062 245.742188 233.136719 C 245.894531 232.980469 245.972656 232.792969 245.972656 232.574219 Z M 245.972656 232.574219 " fill-opacity="1" fill-rule="nonzero"/><g clip-path="url(#cafe7b20b5)"><path fill="#273a4e" d="M 163.75 254.1875 L 163.75 240.824219 L 160.75 237.824219 L 160.75 224.066406 L 160.023438 224.066406 L 160.023438 238.125 L 163.023438 241.125 L 163.023438 254.1875 Z M 163.75 254.1875 " fill-opacity="1" fill-rule="nonzero"/></g><g clip-path="url(#b8838df718)"><path fill="#273a4e" d="M 157.242188 244.175781 L 157.242188 224.066406 L 156.515625 224.066406 L 156.515625 244.175781 Z M 157.242188 244.175781 " fill-opacity="1" fill-rule="nonzero"/></g><path fill="#273a4e" d="M 160.015625 252.976562 L 160.015625 241.707031 L 159.289062 241.707031 L 159.289062 252.976562 Z M 160.015625 252.976562 " fill-opacity="1" fill-rule="nonzero"/><g clip-path="url(#c08ca307af)"><path fill="#273a4e" d="M 166.847656 249.960938 L 166.847656 237.46875 L 164.523438 235.140625 L 164.523438 224.066406 L 163.796875 224.066406 L 163.796875 235.441406 L 166.125 237.769531 L 166.125 249.960938 Z M 166.847656 249.960938 " fill-opacity="1" fill-rule="nonzero"/></g><g clip-path="url(#6b53542abd)"><path fill="#273a4e" d="M 167.765625 233.257812 L 167.765625 224.066406 L 167.039062 224.066406 L 167.039062 233.257812 Z M 167.765625 233.257812 " fill-opacity="1" fill-rule="nonzero"/></g><g clip-path="url(#1fbd5e85b2)"><path fill="#273a4e" d="M 150.480469 253.40625 L 150.480469 239.023438 L 154.308594 236.8125 L 154.308594 224.066406 L 153.585938 224.066406 L 153.585938 236.390625 L 149.753906 238.601562 L 149.753906 253.40625 Z M 150.480469 253.40625 " fill-opacity="1" fill-rule="nonzero"/></g><path fill="#273a4e" d="M 153.308594 253.414062 L 153.308594 239.785156 L 152.582031 239.785156 L 152.582031 253.414062 Z M 153.308594 253.414062 " fill-opacity="1" fill-rule="nonzero"/><g clip-path="url(#4bf3c5c34b)"><path fill="#273a4e" d="M 151.324219 235.488281 L 151.324219 230.574219 L 149.378906 228.632812 L 149.378906 224.066406 L 148.652344 224.066406 L 148.652344 228.933594 L 150.597656 230.875 L 150.597656 235.488281 Z M 151.324219 235.488281 " fill-opacity="1" fill-rule="nonzero"/></g><g clip-path="url(#89c86e7404)"><path fill="#273a4e" d="M 146.96875 251.011719 L 146.96875 224.066406 L 146.242188 224.066406 L 146.242188 251.011719 Z M 146.96875 251.011719 " fill-opacity="1" fill-rule="nonzero"/></g><g clip-path="url(#337854b14a)"><path fill="#273a4e" d="M 143.105469 245.832031 C 143.105469 245.691406 143.132812 245.558594 143.183594 245.429688 C 143.238281 245.300781 143.316406 245.1875 143.414062 245.085938 C 143.511719 244.988281 143.625 244.914062 143.757812 244.859375 C 143.886719 244.804688 144.019531 244.777344 144.160156 244.777344 C 144.300781 244.777344 144.433594 244.804688 144.5625 244.859375 C 144.691406 244.914062 144.804688 244.988281 144.90625 245.085938 C 145.003906 245.1875 145.082031 245.300781 145.132812 245.429688 C 145.1875 245.558594 145.214844 245.691406 145.214844 245.832031 C 145.214844 245.972656 145.1875 246.109375 145.132812 246.238281 C 145.082031 246.367188 145.003906 246.480469 144.90625 246.578125 C 144.804688 246.679688 144.691406 246.753906 144.5625 246.808594 C 144.433594 246.859375 144.300781 246.886719 144.160156 246.886719 C 144.019531 246.886719 143.886719 246.859375 143.757812 246.808594 C 143.625 246.753906 143.511719 246.679688 143.414062 246.578125 C 143.316406 246.480469 143.238281 246.367188 143.183594 246.238281 C 143.132812 246.109375 143.105469 245.972656 143.105469 245.832031 Z M 143.105469 245.832031 " fill-opacity="1" fill-rule="nonzero"/></g><g clip-path="url(#a8ecde4fe1)"><path fill="#273a4e" d="M 145.492188 251.269531 C 145.492188 251.132812 145.519531 250.996094 145.570312 250.867188 C 145.625 250.738281 145.703125 250.625 145.800781 250.527344 C 145.898438 250.425781 146.015625 250.351562 146.144531 250.296875 C 146.273438 250.242188 146.40625 250.214844 146.546875 250.214844 C 146.6875 250.214844 146.820312 250.242188 146.949219 250.296875 C 147.078125 250.351562 147.195312 250.425781 147.292969 250.527344 C 147.390625 250.625 147.46875 250.738281 147.519531 250.867188 C 147.574219 250.996094 147.601562 251.132812 147.601562 251.269531 C 147.601562 251.410156 147.574219 251.546875 147.519531 251.675781 C 147.46875 251.804688 147.390625 251.917969 147.292969 252.015625 C 147.195312 252.117188 147.078125 252.191406 146.949219 252.246094 C 146.820312 252.300781 146.6875 252.324219 146.546875 252.324219 C 146.40625 252.324219 146.273438 252.300781 146.144531 252.246094 C 146.015625 252.191406 145.898438 252.117188 145.800781 252.015625 C 145.703125 251.917969 145.625 251.804688 145.574219 251.675781 C 145.519531 251.546875 145.492188 251.410156 145.492188 251.269531 Z M 145.492188 251.269531 " fill-opacity="1" fill-rule="nonzero"/></g><path fill="#273a4e" d="M 149.09375 253.585938 C 149.09375 253.445312 149.121094 253.308594 149.171875 253.179688 C 149.226562 253.050781 149.304688 252.9375 149.402344 252.839844 C 149.5 252.738281 149.617188 252.664062 149.746094 252.609375 C 149.875 252.558594 150.007812 252.53125 150.148438 252.53125 C 150.289062 252.53125 150.421875 252.558594 150.550781 252.609375 C 150.679688 252.664062 150.796875 252.738281 150.894531 252.839844 C 150.992188 252.9375 151.070312 253.050781 151.121094 253.179688 C 151.175781 253.308594 151.203125 253.445312 151.203125 253.585938 C 151.203125 253.722656 151.175781 253.859375 151.121094 253.988281 C 151.070312 254.117188 150.992188 254.230469 150.894531 254.332031 C 150.796875 254.429688 150.679688 254.503906 150.550781 254.558594 C 150.421875 254.613281 150.289062 254.640625 150.148438 254.640625 C 150.007812 254.640625 149.875 254.613281 149.746094 254.558594 C 149.613281 254.503906 149.5 254.429688 149.402344 254.332031 C 149.304688 254.230469 149.226562 254.117188 149.171875 253.988281 C 149.121094 253.859375 149.09375 253.722656 149.09375 253.585938 Z M 149.09375 253.585938 " fill-opacity="1" fill-rule="nonzero"/><path fill="#273a4e" d="M 151.871094 253.585938 C 151.871094 253.445312 151.898438 253.308594 151.953125 253.179688 C 152.007812 253.050781 152.082031 252.9375 152.179688 252.839844 C 152.28125 252.738281 152.394531 252.664062 152.523438 252.609375 C 152.652344 252.558594 152.785156 252.53125 152.925781 252.53125 C 153.066406 252.53125 153.203125 252.558594 153.332031 252.609375 C 153.460938 252.664062 153.574219 252.738281 153.671875 252.839844 C 153.773438 252.9375 153.847656 253.050781 153.902344 253.179688 C 153.957031 253.308594 153.980469 253.445312 153.980469 253.585938 C 153.980469 253.722656 153.953125 253.859375 153.902344 253.988281 C 153.847656 254.117188 153.773438 254.230469 153.671875 254.332031 C 153.574219 254.429688 153.460938 254.503906 153.332031 254.558594 C 153.199219 254.613281 153.066406 254.640625 152.925781 254.640625 C 152.785156 254.640625 152.652344 254.613281 152.523438 254.558594 C 152.394531 254.503906 152.28125 254.429688 152.179688 254.332031 C 152.082031 254.230469 152.007812 254.117188 151.953125 253.988281 C 151.898438 253.859375 151.871094 253.722656 151.871094 253.585938 Z M 151.871094 253.585938 " fill-opacity="1" fill-rule="nonzero"/><path fill="#273a4e" d="M 158.609375 253.585938 C 158.609375 253.445312 158.636719 253.308594 158.691406 253.179688 C 158.746094 253.050781 158.820312 252.9375 158.917969 252.839844 C 159.019531 252.738281 159.132812 252.664062 159.261719 252.609375 C 159.390625 252.558594 159.523438 252.53125 159.664062 252.53125 C 159.804688 252.53125 159.941406 252.558594 160.070312 252.609375 C 160.199219 252.664062 160.3125 252.738281 160.410156 252.839844 C 160.511719 252.9375 160.585938 253.050781 160.640625 253.179688 C 160.691406 253.308594 160.71875 253.445312 160.71875 253.585938 C 160.71875 253.722656 160.691406 253.859375 160.640625 253.988281 C 160.585938 254.117188 160.507812 254.230469 160.410156 254.332031 C 160.3125 254.429688 160.199219 254.503906 160.070312 254.558594 C 159.9375 254.613281 159.804688 254.640625 159.664062 254.640625 C 159.523438 254.640625 159.390625 254.613281 159.261719 254.558594 C 159.132812 254.503906 159.019531 254.429688 158.917969 254.332031 C 158.820312 254.230469 158.742188 254.117188 158.691406 253.988281 C 158.636719 253.859375 158.609375 253.722656 158.609375 253.585938 Z M 158.609375 253.585938 " fill-opacity="1" fill-rule="nonzero"/><path fill="#273a4e" d="M 162.371094 254.921875 C 162.371094 254.78125 162.394531 254.648438 162.449219 254.519531 C 162.503906 254.390625 162.578125 254.273438 162.679688 254.175781 C 162.777344 254.078125 162.890625 254 163.019531 253.949219 C 163.148438 253.894531 163.285156 253.867188 163.425781 253.867188 C 163.5625 253.867188 163.699219 253.894531 163.828125 253.949219 C 163.957031 254 164.070312 254.078125 164.167969 254.175781 C 164.269531 254.273438 164.34375 254.390625 164.398438 254.519531 C 164.453125 254.648438 164.480469 254.78125 164.480469 254.921875 C 164.480469 255.0625 164.453125 255.195312 164.398438 255.324219 C 164.34375 255.453125 164.269531 255.570312 164.167969 255.667969 C 164.070312 255.765625 163.957031 255.84375 163.828125 255.894531 C 163.699219 255.949219 163.5625 255.976562 163.425781 255.976562 C 163.285156 255.976562 163.148438 255.949219 163.019531 255.898438 C 162.890625 255.84375 162.777344 255.765625 162.679688 255.667969 C 162.578125 255.570312 162.503906 255.453125 162.449219 255.324219 C 162.394531 255.195312 162.371094 255.0625 162.371094 254.921875 Z M 162.371094 254.921875 " fill-opacity="1" fill-rule="nonzero"/><path fill="#273a4e" d="M 165.402344 250.414062 C 165.402344 250.277344 165.429688 250.140625 165.484375 250.011719 C 165.535156 249.882812 165.613281 249.769531 165.710938 249.671875 C 165.8125 249.570312 165.925781 249.496094 166.054688 249.441406 C 166.183594 249.386719 166.316406 249.363281 166.457031 249.359375 C 166.597656 249.359375 166.730469 249.386719 166.859375 249.441406 C 166.992188 249.496094 167.105469 249.570312 167.203125 249.671875 C 167.300781 249.769531 167.378906 249.882812 167.433594 250.011719 C 167.484375 250.140625 167.511719 250.277344 167.511719 250.414062 C 167.511719 250.554688 167.484375 250.691406 167.433594 250.820312 C 167.378906 250.949219 167.300781 251.0625 167.203125 251.160156 C 167.105469 251.261719 166.988281 251.335938 166.859375 251.390625 C 166.730469 251.445312 166.597656 251.46875 166.457031 251.46875 C 166.316406 251.46875 166.183594 251.445312 166.054688 251.390625 C 165.925781 251.335938 165.8125 251.261719 165.710938 251.160156 C 165.613281 251.0625 165.535156 250.949219 165.484375 250.820312 C 165.429688 250.691406 165.402344 250.554688 165.402344 250.414062 Z M 165.402344 250.414062 " fill-opacity="1" fill-rule="nonzero"/><g clip-path="url(#13f0bd07b7)"><path fill="#273a4e" d="M 166.308594 233.386719 C 166.308594 233.246094 166.335938 233.113281 166.386719 232.984375 C 166.441406 232.855469 166.519531 232.742188 166.617188 232.640625 C 166.714844 232.542969 166.832031 232.464844 166.960938 232.414062 C 167.089844 232.359375 167.222656 232.332031 167.363281 232.332031 C 167.503906 232.332031 167.636719 232.359375 167.765625 232.414062 C 167.894531 232.464844 168.011719 232.542969 168.109375 232.640625 C 168.207031 232.742188 168.285156 232.855469 168.335938 232.984375 C 168.390625 233.113281 168.417969 233.246094 168.417969 233.386719 C 168.417969 233.527344 168.390625 233.660156 168.335938 233.792969 C 168.285156 233.921875 168.207031 234.035156 168.109375 234.132812 C 168.011719 234.230469 167.894531 234.308594 167.765625 234.363281 C 167.636719 234.414062 167.503906 234.441406 167.363281 234.441406 C 167.222656 234.441406 167.089844 234.414062 166.960938 234.363281 C 166.832031 234.308594 166.714844 234.230469 166.617188 234.132812 C 166.519531 234.035156 166.441406 233.921875 166.386719 233.792969 C 166.335938 233.660156 166.308594 233.527344 166.308594 233.386719 Z M 166.308594 233.386719 " fill-opacity="1" fill-rule="nonzero"/></g><path fill="#273a4e" d="M 155.792969 244.105469 C 155.792969 243.964844 155.820312 243.832031 155.875 243.699219 C 155.929688 243.570312 156.003906 243.457031 156.105469 243.359375 C 156.203125 243.261719 156.316406 243.183594 156.445312 243.128906 C 156.574219 243.078125 156.710938 243.050781 156.847656 243.050781 C 156.988281 243.050781 157.125 243.078125 157.253906 243.128906 C 157.382812 243.183594 157.496094 243.261719 157.59375 243.359375 C 157.695312 243.457031 157.769531 243.570312 157.824219 243.699219 C 157.878906 243.832031 157.902344 243.964844 157.902344 244.105469 C 157.902344 244.246094 157.878906 244.378906 157.824219 244.507812 C 157.769531 244.636719 157.695312 244.75 157.59375 244.851562 C 157.496094 244.949219 157.382812 245.023438 157.253906 245.078125 C 157.125 245.132812 156.988281 245.160156 156.847656 245.160156 C 156.710938 245.160156 156.574219 245.132812 156.445312 245.078125 C 156.316406 245.027344 156.203125 244.949219 156.105469 244.851562 C 156.003906 244.75 155.929688 244.636719 155.875 244.507812 C 155.820312 244.378906 155.792969 244.246094 155.792969 244.105469 Z M 155.792969 244.105469 " fill-opacity="1" fill-rule="nonzero"/><path fill="#273a4e" d="M 158.558594 241.800781 C 158.558594 241.660156 158.585938 241.527344 158.640625 241.398438 C 158.695312 241.269531 158.769531 241.15625 158.867188 241.054688 C 158.96875 240.957031 159.082031 240.878906 159.210938 240.828125 C 159.339844 240.773438 159.476562 240.746094 159.613281 240.746094 C 159.753906 240.746094 159.890625 240.773438 160.019531 240.828125 C 160.148438 240.882812 160.261719 240.957031 160.359375 241.054688 C 160.460938 241.15625 160.535156 241.269531 160.589844 241.398438 C 160.644531 241.527344 160.667969 241.660156 160.667969 241.800781 C 160.667969 241.941406 160.644531 242.074219 160.589844 242.207031 C 160.535156 242.335938 160.460938 242.449219 160.359375 242.546875 C 160.261719 242.644531 160.148438 242.722656 160.019531 242.777344 C 159.890625 242.828125 159.753906 242.855469 159.613281 242.855469 C 159.476562 242.855469 159.339844 242.828125 159.210938 242.777344 C 159.082031 242.722656 158.96875 242.648438 158.867188 242.546875 C 158.769531 242.449219 158.695312 242.335938 158.640625 242.207031 C 158.585938 242.078125 158.558594 241.941406 158.558594 241.800781 Z M 158.558594 241.800781 " fill-opacity="1" fill-rule="nonzero"/><path fill="#273a4e" d="M 151.851562 239.914062 C 151.851562 239.773438 151.878906 239.640625 151.933594 239.511719 C 151.984375 239.378906 152.0625 239.265625 152.160156 239.167969 C 152.261719 239.070312 152.375 238.992188 152.503906 238.9375 C 152.632812 238.886719 152.765625 238.859375 152.90625 238.859375 C 153.046875 238.859375 153.179688 238.886719 153.308594 238.9375 C 153.441406 238.992188 153.554688 239.070312 153.652344 239.167969 C 153.75 239.265625 153.828125 239.378906 153.882812 239.511719 C 153.933594 239.640625 153.960938 239.773438 153.960938 239.914062 C 153.960938 240.054688 153.933594 240.1875 153.882812 240.316406 C 153.828125 240.445312 153.75 240.558594 153.652344 240.660156 C 153.554688 240.757812 153.4375 240.835938 153.308594 240.886719 C 153.179688 240.941406 153.046875 240.96875 152.90625 240.96875 C 152.765625 240.96875 152.632812 240.941406 152.503906 240.886719 C 152.375 240.835938 152.257812 240.757812 152.160156 240.660156 C 152.0625 240.558594 151.984375 240.445312 151.933594 240.316406 C 151.878906 240.1875 151.851562 240.054688 151.851562 239.914062 Z M 151.851562 239.914062 " fill-opacity="1" fill-rule="nonzero"/><path fill="#273a4e" d="M 149.855469 235.386719 C 149.855469 235.246094 149.882812 235.113281 149.9375 234.984375 C 149.992188 234.851562 150.066406 234.738281 150.167969 234.640625 C 150.265625 234.542969 150.378906 234.464844 150.507812 234.410156 C 150.636719 234.359375 150.773438 234.332031 150.910156 234.332031 C 151.050781 234.332031 151.1875 234.359375 151.316406 234.410156 C 151.445312 234.464844 151.558594 234.542969 151.65625 234.640625 C 151.757812 234.738281 151.832031 234.851562 151.886719 234.984375 C 151.941406 235.113281 151.964844 235.246094 151.964844 235.386719 C 151.964844 235.527344 151.941406 235.660156 151.886719 235.789062 C 151.832031 235.917969 151.757812 236.03125 151.65625 236.132812 C 151.558594 236.230469 151.445312 236.308594 151.316406 236.359375 C 151.1875 236.414062 151.050781 236.441406 150.910156 236.441406 C 150.773438 236.441406 150.636719 236.414062 150.507812 236.359375 C 150.378906 236.308594 150.265625 236.230469 150.164062 236.132812 C 150.066406 236.03125 149.992188 235.917969 149.9375 235.789062 C 149.882812 235.660156 149.855469 235.527344 149.855469 235.386719 Z M 149.855469 235.386719 " fill-opacity="1" fill-rule="nonzero"/><g clip-path="url(#741d2d5bba)"><path fill="#273a4e" d="M 139.464844 245.90625 L 139.464844 235.859375 L 137.207031 233.601562 L 137.207031 223.257812 L 136.664062 223.257812 L 136.664062 233.828125 L 138.917969 236.085938 L 138.917969 245.90625 Z M 139.464844 245.90625 " fill-opacity="1" fill-rule="nonzero"/></g><g clip-path="url(#acedef797b)"><path fill="#273a4e" d="M 134.570312 238.375 L 134.570312 223.257812 L 134.023438 223.257812 L 134.023438 238.375 Z M 134.570312 238.375 " fill-opacity="1" fill-rule="nonzero"/></g><path fill="#273a4e" d="M 136.65625 244.992188 L 136.65625 236.523438 L 136.109375 236.523438 L 136.109375 244.992188 Z M 136.65625 244.992188 " fill-opacity="1" fill-rule="nonzero"/><g clip-path="url(#c84ba110ba)"><path fill="#273a4e" d="M 141.792969 242.726562 L 141.792969 233.335938 L 140.046875 231.585938 L 140.046875 223.257812 L 139.5 223.257812 L 139.5 231.8125 L 141.25 233.558594 L 141.25 242.726562 Z M 141.792969 242.726562 " fill-opacity="1" fill-rule="nonzero"/></g><g clip-path="url(#5fad8a3b3c)"><path fill="#273a4e" d="M 142.480469 230.167969 L 142.480469 223.257812 L 141.9375 223.257812 L 141.9375 230.167969 Z M 142.480469 230.167969 " fill-opacity="1" fill-rule="nonzero"/></g><g clip-path="url(#e982ff9dbc)"><path fill="#273a4e" d="M 129.488281 245.316406 L 129.488281 234.503906 L 132.367188 232.839844 L 132.367188 223.257812 L 131.820312 223.257812 L 131.820312 232.523438 L 128.941406 234.1875 L 128.941406 245.316406 Z M 129.488281 245.316406 " fill-opacity="1" fill-rule="nonzero"/></g><path fill="#273a4e" d="M 131.617188 245.324219 L 131.617188 235.078125 L 131.070312 235.078125 L 131.070312 245.324219 Z M 131.617188 245.324219 " fill-opacity="1" fill-rule="nonzero"/><g clip-path="url(#fa8e12e11f)"><path fill="#273a4e" d="M 130.125 231.847656 L 130.125 228.152344 L 128.664062 226.691406 L 128.664062 223.257812 L 128.117188 223.257812 L 128.117188 226.917969 L 129.578125 228.378906 L 129.578125 231.847656 Z M 130.125 231.847656 " fill-opacity="1" fill-rule="nonzero"/></g><g clip-path="url(#1eb92f40f0)"><path fill="#273a4e" d="M 126.847656 243.515625 L 126.847656 223.257812 L 126.300781 223.257812 L 126.300781 243.515625 Z M 126.847656 243.515625 " fill-opacity="1" fill-rule="nonzero"/></g><g clip-path="url(#e4b35d3b96)"><path fill="#273a4e" d="M 123.945312 239.621094 C 123.945312 239.402344 124.023438 239.21875 124.175781 239.0625 C 124.332031 238.90625 124.519531 238.832031 124.738281 238.832031 C 124.957031 238.832031 125.144531 238.90625 125.296875 239.0625 C 125.453125 239.21875 125.53125 239.402344 125.53125 239.621094 C 125.53125 239.84375 125.453125 240.027344 125.296875 240.183594 C 125.144531 240.339844 124.957031 240.414062 124.738281 240.414062 C 124.519531 240.414062 124.332031 240.339844 124.175781 240.183594 C 124.023438 240.027344 123.945312 239.84375 123.945312 239.621094 Z M 123.945312 239.621094 " fill-opacity="1" fill-rule="nonzero"/></g><g clip-path="url(#8ee7076688)"><path fill="#273a4e" d="M 125.738281 243.710938 C 125.738281 243.492188 125.816406 243.304688 125.972656 243.148438 C 126.125 242.996094 126.3125 242.917969 126.53125 242.917969 C 126.75 242.917969 126.9375 242.996094 127.09375 243.152344 C 127.246094 243.304688 127.324219 243.492188 127.324219 243.710938 C 127.324219 243.929688 127.246094 244.117188 127.09375 244.273438 C 126.9375 244.425781 126.75 244.503906 126.53125 244.503906 C 126.3125 244.503906 126.125 244.425781 125.972656 244.273438 C 125.816406 244.117188 125.738281 243.929688 125.738281 243.710938 Z M 125.738281 243.710938 " fill-opacity="1" fill-rule="nonzero"/></g><path fill="#273a4e" d="M 128.445312 245.449219 C 128.445312 245.230469 128.523438 245.042969 128.679688 244.890625 C 128.832031 244.734375 129.019531 244.65625 129.238281 244.65625 C 129.457031 244.65625 129.644531 244.734375 129.800781 244.890625 C 129.953125 245.042969 130.03125 245.230469 130.03125 245.449219 C 130.03125 245.667969 129.953125 245.855469 129.800781 246.011719 C 129.644531 246.164062 129.457031 246.242188 129.238281 246.242188 C 129.019531 246.242188 128.832031 246.164062 128.679688 246.011719 C 128.523438 245.855469 128.445312 245.667969 128.445312 245.449219 Z M 128.445312 245.449219 " fill-opacity="1" fill-rule="nonzero"/><path fill="#273a4e" d="M 130.535156 245.449219 C 130.535156 245.230469 130.613281 245.042969 130.769531 244.890625 C 130.921875 244.734375 131.109375 244.65625 131.328125 244.65625 C 131.546875 244.65625 131.734375 244.734375 131.890625 244.890625 C 132.042969 245.042969 132.121094 245.230469 132.121094 245.449219 C 132.121094 245.667969 132.042969 245.855469 131.890625 246.011719 C 131.734375 246.164062 131.546875 246.242188 131.328125 246.242188 C 131.109375 246.242188 130.921875 246.164062 130.765625 246.011719 C 130.613281 245.855469 130.535156 245.667969 130.535156 245.449219 Z M 130.535156 245.449219 " fill-opacity="1" fill-rule="nonzero"/><path fill="#273a4e" d="M 135.601562 245.449219 C 135.601562 245.230469 135.679688 245.042969 135.832031 244.890625 C 135.988281 244.734375 136.175781 244.65625 136.394531 244.65625 C 136.613281 244.65625 136.800781 244.734375 136.953125 244.890625 C 137.109375 245.042969 137.1875 245.230469 137.1875 245.449219 C 137.1875 245.667969 137.109375 245.855469 136.953125 246.011719 C 136.800781 246.164062 136.613281 246.242188 136.394531 246.242188 C 136.175781 246.242188 135.988281 246.164062 135.832031 246.011719 C 135.679688 245.855469 135.601562 245.667969 135.601562 245.449219 Z M 135.601562 245.449219 " fill-opacity="1" fill-rule="nonzero"/><g clip-path="url(#accba5e96d)"><path fill="#273a4e" d="M 138.425781 246.457031 C 138.425781 246.238281 138.503906 246.050781 138.660156 245.894531 C 138.8125 245.738281 139 245.664062 139.21875 245.664062 C 139.4375 245.664062 139.625 245.738281 139.78125 245.894531 C 139.933594 246.050781 140.011719 246.238281 140.011719 246.457031 C 140.011719 246.675781 139.933594 246.859375 139.78125 247.015625 C 139.625 247.171875 139.4375 247.25 139.21875 247.25 C 139 247.25 138.8125 247.171875 138.660156 247.015625 C 138.503906 246.859375 138.425781 246.675781 138.425781 246.457031 Z M 138.425781 246.457031 " fill-opacity="1" fill-rule="nonzero"/></g><g clip-path="url(#8a5dcd0fe5)"><path fill="#273a4e" d="M 140.707031 243.066406 C 140.707031 242.847656 140.785156 242.664062 140.9375 242.507812 C 141.09375 242.351562 141.28125 242.273438 141.5 242.273438 C 141.71875 242.273438 141.90625 242.351562 142.058594 242.507812 C 142.214844 242.664062 142.292969 242.847656 142.292969 243.066406 C 142.292969 243.285156 142.214844 243.472656 142.058594 243.628906 C 141.90625 243.785156 141.71875 243.859375 141.5 243.859375 C 141.28125 243.859375 141.09375 243.785156 140.9375 243.628906 C 140.785156 243.472656 140.707031 243.285156 140.707031 243.066406 Z M 140.707031 243.066406 " fill-opacity="1" fill-rule="nonzero"/></g><g clip-path="url(#e978265fa5)"><path fill="#273a4e" d="M 141.386719 230.265625 C 141.386719 230.046875 141.464844 229.859375 141.621094 229.707031 C 141.773438 229.550781 141.960938 229.472656 142.179688 229.472656 C 142.398438 229.472656 142.585938 229.550781 142.742188 229.707031 C 142.894531 229.859375 142.972656 230.046875 142.972656 230.265625 C 142.972656 230.484375 142.894531 230.671875 142.742188 230.828125 C 142.585938 230.984375 142.398438 231.058594 142.179688 231.058594 C 141.960938 231.058594 141.773438 230.984375 141.621094 230.828125 C 141.464844 230.671875 141.386719 230.484375 141.386719 230.265625 Z M 141.386719 230.265625 " fill-opacity="1" fill-rule="nonzero"/></g><path fill="#273a4e" d="M 133.484375 238.324219 C 133.484375 238.105469 133.5625 237.917969 133.714844 237.761719 C 133.871094 237.609375 134.058594 237.53125 134.277344 237.53125 C 134.496094 237.53125 134.683594 237.609375 134.835938 237.761719 C 134.992188 237.917969 135.070312 238.105469 135.070312 238.324219 C 135.070312 238.542969 134.992188 238.730469 134.835938 238.882812 C 134.683594 239.039062 134.496094 239.117188 134.277344 239.117188 C 134.058594 239.117188 133.871094 239.039062 133.714844 238.882812 C 133.5625 238.730469 133.484375 238.542969 133.484375 238.324219 Z M 133.484375 238.324219 " fill-opacity="1" fill-rule="nonzero"/><path fill="#273a4e" d="M 135.5625 236.59375 C 135.5625 236.375 135.640625 236.1875 135.796875 236.03125 C 135.949219 235.875 136.136719 235.800781 136.355469 235.800781 C 136.574219 235.800781 136.761719 235.875 136.917969 236.03125 C 137.070312 236.1875 137.148438 236.375 137.148438 236.59375 C 137.148438 236.8125 137.070312 237 136.917969 237.152344 C 136.761719 237.308594 136.574219 237.386719 136.355469 237.386719 C 136.136719 237.386719 135.949219 237.308594 135.796875 237.152344 C 135.640625 237 135.5625 236.8125 135.5625 236.59375 Z M 135.5625 236.59375 " fill-opacity="1" fill-rule="nonzero"/><path fill="#273a4e" d="M 130.519531 235.171875 C 130.519531 234.953125 130.597656 234.765625 130.753906 234.613281 C 130.90625 234.457031 131.09375 234.378906 131.3125 234.378906 C 131.53125 234.378906 131.71875 234.457031 131.875 234.613281 C 132.027344 234.765625 132.105469 234.953125 132.105469 235.171875 C 132.105469 235.390625 132.027344 235.578125 131.875 235.734375 C 131.71875 235.886719 131.53125 235.964844 131.3125 235.964844 C 131.09375 235.964844 130.90625 235.886719 130.753906 235.734375 C 130.597656 235.578125 130.519531 235.390625 130.519531 235.171875 Z M 130.519531 235.171875 " fill-opacity="1" fill-rule="nonzero"/><path fill="#273a4e" d="M 129.019531 231.769531 C 129.019531 231.550781 129.097656 231.363281 129.253906 231.207031 C 129.40625 231.054688 129.59375 230.976562 129.8125 230.976562 C 130.03125 230.976562 130.21875 231.054688 130.375 231.207031 C 130.527344 231.363281 130.605469 231.550781 130.605469 231.769531 C 130.605469 231.988281 130.527344 232.175781 130.375 232.328125 C 130.21875 232.484375 130.03125 232.5625 129.8125 232.5625 C 129.59375 232.5625 129.40625 232.484375 129.253906 232.332031 C 129.097656 232.175781 129.019531 231.988281 129.019531 231.769531 Z M 129.019531 231.769531 " fill-opacity="1" fill-rule="nonzero"/><g fill="#273a4e" fill-opacity="1"><g transform="translate(15.091418, 341.960883)"><g><path d="M 30.171875 -11.484375 C 30.171875 -7.671875 28.785156 -4.703125 26.015625 -2.578125 C 23.253906 -0.460938 19.53125 0.59375 14.84375 0.59375 C 12.4375 0.59375 10.210938 0.410156 8.171875 0.046875 C 6.128906 -0.304688 4.425781 -0.800781 3.0625 -1.4375 L 3.0625 -6.609375 C 4.507812 -5.972656 6.300781 -5.394531 8.4375 -4.875 C 10.582031 -4.351562 12.800781 -4.09375 15.09375 -4.09375 C 18.257812 -4.09375 20.660156 -4.710938 22.296875 -5.953125 C 23.941406 -7.191406 24.765625 -8.875 24.765625 -11 C 24.765625 -12.40625 24.460938 -13.585938 23.859375 -14.546875 C 23.265625 -15.503906 22.222656 -16.382812 20.734375 -17.1875 C 19.253906 -17.988281 17.234375 -18.875 14.671875 -19.84375 C 10.984375 -21.15625 8.21875 -22.773438 6.375 -24.703125 C 4.53125 -26.628906 3.609375 -29.253906 3.609375 -32.578125 C 3.609375 -34.828125 4.1875 -36.769531 5.34375 -38.40625 C 6.507812 -40.050781 8.113281 -41.3125 10.15625 -42.1875 C 12.195312 -43.070312 14.582031 -43.515625 17.3125 -43.515625 C 19.632812 -43.515625 21.773438 -43.296875 23.734375 -42.859375 C 25.703125 -42.421875 27.507812 -41.835938 29.15625 -41.109375 L 27.46875 -36.484375 C 25.988281 -37.128906 24.363281 -37.671875 22.59375 -38.109375 C 20.832031 -38.546875 19.03125 -38.765625 17.1875 -38.765625 C 14.5 -38.765625 12.472656 -38.191406 11.109375 -37.046875 C 9.753906 -35.910156 9.078125 -34.398438 9.078125 -32.515625 C 9.078125 -31.078125 9.375 -29.875 9.96875 -28.90625 C 10.570312 -27.945312 11.554688 -27.078125 12.921875 -26.296875 C 14.285156 -25.515625 16.128906 -24.703125 18.453125 -23.859375 C 20.972656 -22.941406 23.101562 -21.953125 24.84375 -20.890625 C 26.59375 -19.828125 27.914062 -18.550781 28.8125 -17.0625 C 29.71875 -15.582031 30.171875 -13.722656 30.171875 -11.484375 Z M 30.171875 -11.484375 "/></g></g></g><g fill="#273a4e" fill-opacity="1"><g transform="translate(48.088501, 341.960883)"><g><path d="M 17.546875 -32.8125 C 20.273438 -32.8125 22.640625 -32.210938 24.640625 -31.015625 C 26.648438 -29.816406 28.1875 -28.125 29.25 -25.9375 C 30.3125 -23.75 30.84375 -21.191406 30.84375 -18.265625 L 30.84375 -15.09375 L 8.78125 -15.09375 C 8.851562 -11.445312 9.78125 -8.671875 11.5625 -6.765625 C 13.351562 -4.859375 15.847656 -3.90625 19.046875 -3.90625 C 21.097656 -3.90625 22.914062 -4.09375 24.5 -4.46875 C 26.082031 -4.851562 27.710938 -5.40625 29.390625 -6.125 L 29.390625 -1.5 C 27.742188 -0.78125 26.117188 -0.253906 24.515625 0.078125 C 22.921875 0.421875 21.019531 0.59375 18.8125 0.59375 C 15.726562 0.59375 13.023438 -0.0234375 10.703125 -1.265625 C 8.378906 -2.503906 6.566406 -4.34375 5.265625 -6.78125 C 3.960938 -9.226562 3.3125 -12.257812 3.3125 -15.875 C 3.3125 -19.394531 3.898438 -22.414062 5.078125 -24.9375 C 6.265625 -27.46875 7.925781 -29.410156 10.0625 -30.765625 C 12.207031 -32.128906 14.703125 -32.8125 17.546875 -32.8125 Z M 17.484375 -28.484375 C 14.960938 -28.484375 12.96875 -27.671875 11.5 -26.046875 C 10.039062 -24.429688 9.171875 -22.179688 8.890625 -19.296875 L 25.3125 -19.296875 C 25.269531 -22.015625 24.625 -24.222656 23.375 -25.921875 C 22.132812 -27.628906 20.171875 -28.484375 17.484375 -28.484375 Z M 17.484375 -28.484375 "/></g></g></g><g fill="#273a4e" fill-opacity="1"><g transform="translate(81.987152, 341.960883)"><g><path d="M 17.546875 -32.8125 C 20.273438 -32.8125 22.640625 -32.210938 24.640625 -31.015625 C 26.648438 -29.816406 28.1875 -28.125 29.25 -25.9375 C 30.3125 -23.75 30.84375 -21.191406 30.84375 -18.265625 L 30.84375 -15.09375 L 8.78125 -15.09375 C 8.851562 -11.445312 9.78125 -8.671875 11.5625 -6.765625 C 13.351562 -4.859375 15.847656 -3.90625 19.046875 -3.90625 C 21.097656 -3.90625 22.914062 -4.09375 24.5 -4.46875 C 26.082031 -4.851562 27.710938 -5.40625 29.390625 -6.125 L 29.390625 -1.5 C 27.742188 -0.78125 26.117188 -0.253906 24.515625 0.078125 C 22.921875 0.421875 21.019531 0.59375 18.8125 0.59375 C 15.726562 0.59375 13.023438 -0.0234375 10.703125 -1.265625 C 8.378906 -2.503906 6.566406 -4.34375 5.265625 -6.78125 C 3.960938 -9.226562 3.3125 -12.257812 3.3125 -15.875 C 3.3125 -19.394531 3.898438 -22.414062 5.078125 -24.9375 C 6.265625 -27.46875 7.925781 -29.410156 10.0625 -30.765625 C 12.207031 -32.128906 14.703125 -32.8125 17.546875 -32.8125 Z M 17.484375 -28.484375 C 14.960938 -28.484375 12.96875 -27.671875 11.5 -26.046875 C 10.039062 -24.429688 9.171875 -22.179688 8.890625 -19.296875 L 25.3125 -19.296875 C 25.269531 -22.015625 24.625 -24.222656 23.375 -25.921875 C 22.132812 -27.628906 20.171875 -28.484375 17.484375 -28.484375 Z M 17.484375 -28.484375 "/></g></g></g><g fill="#273a4e" fill-opacity="1"><g transform="translate(115.885803, 341.960883)"><g><path d="M 16.53125 0.59375 C 12.519531 0.59375 9.3125 -0.796875 6.90625 -3.578125 C 4.507812 -6.359375 3.3125 -10.515625 3.3125 -16.046875 C 3.3125 -21.578125 4.519531 -25.753906 6.9375 -28.578125 C 9.363281 -31.398438 12.582031 -32.8125 16.59375 -32.8125 C 19.070312 -32.8125 21.101562 -32.351562 22.6875 -31.4375 C 24.269531 -30.519531 25.5625 -29.398438 26.5625 -28.078125 L 26.921875 -28.078125 C 26.847656 -28.597656 26.769531 -29.367188 26.6875 -30.390625 C 26.601562 -31.410156 26.5625 -32.21875 26.5625 -32.8125 L 26.5625 -45.6875 L 31.859375 -45.6875 L 31.859375 0 L 27.59375 0 L 26.8125 -4.328125 L 26.5625 -4.328125 C 25.601562 -2.960938 24.320312 -1.800781 22.71875 -0.84375 C 21.113281 0.113281 19.050781 0.59375 16.53125 0.59375 Z M 17.375 -3.78125 C 20.78125 -3.78125 23.171875 -4.710938 24.546875 -6.578125 C 25.929688 -8.441406 26.625 -11.257812 26.625 -15.03125 L 26.625 -15.984375 C 26.625 -19.992188 25.960938 -23.070312 24.640625 -25.21875 C 23.316406 -27.363281 20.875 -28.4375 17.3125 -28.4375 C 14.46875 -28.4375 12.332031 -27.300781 10.90625 -25.03125 C 9.488281 -22.769531 8.78125 -19.734375 8.78125 -15.921875 C 8.78125 -12.078125 9.488281 -9.09375 10.90625 -6.96875 C 12.332031 -4.84375 14.488281 -3.78125 17.375 -3.78125 Z M 17.375 -3.78125 "/></g></g></g><g fill="#273a4e" fill-opacity="1"><g transform="translate(152.849761, 341.960883)"><g><path d="M 24.765625 0 L 10.640625 -37.625 L 10.40625 -37.625 C 10.519531 -36.382812 10.613281 -34.710938 10.6875 -32.609375 C 10.769531 -30.503906 10.8125 -28.3125 10.8125 -26.03125 L 10.8125 0 L 5.828125 0 L 5.828125 -42.921875 L 13.828125 -42.921875 L 27.046875 -7.75 L 27.296875 -7.75 L 40.75 -42.921875 L 48.6875 -42.921875 L 48.6875 0 L 43.34375 0 L 43.34375 -26.390625 C 43.34375 -28.472656 43.390625 -30.535156 43.484375 -32.578125 C 43.585938 -34.617188 43.679688 -36.28125 43.765625 -37.5625 L 43.515625 -37.5625 L 29.21875 0 Z M 24.765625 0 "/></g></g></g><g fill="#273a4e" fill-opacity="1"><g transform="translate(207.364077, 341.960883)"><g><path d="M 17.546875 -32.8125 C 20.273438 -32.8125 22.640625 -32.210938 24.640625 -31.015625 C 26.648438 -29.816406 28.1875 -28.125 29.25 -25.9375 C 30.3125 -23.75 30.84375 -21.191406 30.84375 -18.265625 L 30.84375 -15.09375 L 8.78125 -15.09375 C 8.851562 -11.445312 9.78125 -8.671875 11.5625 -6.765625 C 13.351562 -4.859375 15.847656 -3.90625 19.046875 -3.90625 C 21.097656 -3.90625 22.914062 -4.09375 24.5 -4.46875 C 26.082031 -4.851562 27.710938 -5.40625 29.390625 -6.125 L 29.390625 -1.5 C 27.742188 -0.78125 26.117188 -0.253906 24.515625 0.078125 C 22.921875 0.421875 21.019531 0.59375 18.8125 0.59375 C 15.726562 0.59375 13.023438 -0.0234375 10.703125 -1.265625 C 8.378906 -2.503906 6.566406 -4.34375 5.265625 -6.78125 C 3.960938 -9.226562 3.3125 -12.257812 3.3125 -15.875 C 3.3125 -19.394531 3.898438 -22.414062 5.078125 -24.9375 C 6.265625 -27.46875 7.925781 -29.410156 10.0625 -30.765625 C 12.207031 -32.128906 14.703125 -32.8125 17.546875 -32.8125 Z M 17.484375 -28.484375 C 14.960938 -28.484375 12.96875 -27.671875 11.5 -26.046875 C 10.039062 -24.429688 9.171875 -22.179688 8.890625 -19.296875 L 25.3125 -19.296875 C 25.269531 -22.015625 24.625 -24.222656 23.375 -25.921875 C 22.132812 -27.628906 20.171875 -28.484375 17.484375 -28.484375 Z M 17.484375 -28.484375 "/></g></g></g><g fill="#273a4e" fill-opacity="1"><g transform="translate(241.262728, 341.960883)"><g><path d="M 15.875 -3.734375 C 16.675781 -3.734375 17.492188 -3.789062 18.328125 -3.90625 C 19.171875 -4.03125 19.851562 -4.191406 20.375 -4.390625 L 20.375 -0.359375 C 19.8125 -0.078125 19.007812 0.148438 17.96875 0.328125 C 16.925781 0.503906 15.925781 0.59375 14.96875 0.59375 C 13.28125 0.59375 11.722656 0.304688 10.296875 -0.265625 C 8.878906 -0.847656 7.726562 -1.859375 6.84375 -3.296875 C 5.96875 -4.742188 5.53125 -6.769531 5.53125 -9.375 L 5.53125 -28.125 L 0.96875 -28.125 L 0.96875 -30.65625 L 5.59375 -32.765625 L 7.6875 -39.609375 L 10.8125 -39.609375 L 10.8125 -32.21875 L 20.140625 -32.21875 L 20.140625 -28.125 L 10.8125 -28.125 L 10.8125 -9.5 C 10.8125 -7.53125 11.28125 -6.078125 12.21875 -5.140625 C 13.164062 -4.203125 14.382812 -3.734375 15.875 -3.734375 Z M 15.875 -3.734375 "/></g></g></g><g fill="#273a4e" fill-opacity="1"><g transform="translate(262.960285, 341.960883)"><g><path d="M 20.140625 -32.8125 C 20.734375 -32.8125 21.367188 -32.78125 22.046875 -32.71875 C 22.734375 -32.664062 23.359375 -32.578125 23.921875 -32.453125 L 23.265625 -27.59375 C 22.742188 -27.707031 22.160156 -27.804688 21.515625 -27.890625 C 20.878906 -27.972656 20.300781 -28.015625 19.78125 -28.015625 C 18.132812 -28.015625 16.585938 -27.5625 15.140625 -26.65625 C 13.703125 -25.757812 12.550781 -24.5 11.6875 -22.875 C 10.832031 -21.25 10.40625 -19.351562 10.40625 -17.1875 L 10.40625 0 L 5.109375 0 L 5.109375 -32.21875 L 9.4375 -32.21875 L 10.03125 -26.328125 L 10.28125 -26.328125 C 11.28125 -28.085938 12.609375 -29.609375 14.265625 -30.890625 C 15.929688 -32.171875 17.890625 -32.8125 20.140625 -32.8125 Z M 20.140625 -32.8125 "/></g></g></g><g fill="#273a4e" fill-opacity="1"><g transform="translate(287.783236, 341.960883)"><g><path d="M 7.8125 -44.296875 C 8.613281 -44.296875 9.320312 -44.023438 9.9375 -43.484375 C 10.5625 -42.941406 10.875 -42.09375 10.875 -40.9375 C 10.875 -39.769531 10.5625 -38.914062 9.9375 -38.375 C 9.320312 -37.832031 8.613281 -37.5625 7.8125 -37.5625 C 6.925781 -37.5625 6.179688 -37.832031 5.578125 -38.375 C 4.984375 -38.914062 4.6875 -39.769531 4.6875 -40.9375 C 4.6875 -42.09375 4.984375 -42.941406 5.578125 -43.484375 C 6.179688 -44.023438 6.925781 -44.296875 7.8125 -44.296875 Z M 10.40625 -32.21875 L 10.40625 0 L 5.109375 0 L 5.109375 -32.21875 Z M 10.40625 -32.21875 "/></g></g></g><g fill="#273a4e" fill-opacity="1"><g transform="translate(303.290062, 341.960883)"><g><path d="M 18.03125 0.59375 C 15.144531 0.59375 12.597656 0.015625 10.390625 -1.140625 C 8.191406 -2.304688 6.460938 -4.109375 5.203125 -6.546875 C 3.941406 -8.992188 3.3125 -12.117188 3.3125 -15.921875 C 3.3125 -19.890625 3.960938 -23.113281 5.265625 -25.59375 C 6.566406 -28.082031 8.359375 -29.90625 10.640625 -31.0625 C 12.921875 -32.226562 15.503906 -32.8125 18.390625 -32.8125 C 19.992188 -32.8125 21.566406 -32.640625 23.109375 -32.296875 C 24.648438 -31.960938 25.90625 -31.554688 26.875 -31.078125 L 25.25 -26.6875 C 24.28125 -27.050781 23.15625 -27.390625 21.875 -27.703125 C 20.59375 -28.023438 19.390625 -28.1875 18.265625 -28.1875 C 11.941406 -28.1875 8.78125 -24.117188 8.78125 -15.984375 C 8.78125 -12.097656 9.550781 -9.125 11.09375 -7.0625 C 12.632812 -5 14.925781 -3.96875 17.96875 -3.96875 C 19.695312 -3.96875 21.238281 -4.144531 22.59375 -4.5 C 23.957031 -4.863281 25.203125 -5.304688 26.328125 -5.828125 L 26.328125 -1.140625 C 25.242188 -0.578125 24.050781 -0.148438 22.75 0.140625 C 21.445312 0.441406 19.875 0.59375 18.03125 0.59375 Z M 18.03125 0.59375 "/></g></g></g><g fill="#273a4e" fill-opacity="1"><g transform="translate(332.13999, 341.960883)"><g><path d="M 26.09375 -8.890625 C 26.09375 -5.765625 24.925781 -3.398438 22.59375 -1.796875 C 20.269531 -0.203125 17.144531 0.59375 13.21875 0.59375 C 10.976562 0.59375 9.046875 0.410156 7.421875 0.046875 C 5.796875 -0.304688 4.363281 -0.800781 3.125 -1.4375 L 3.125 -6.25 C 4.40625 -5.613281 5.957031 -5.023438 7.78125 -4.484375 C 9.601562 -3.941406 11.457031 -3.671875 13.34375 -3.671875 C 16.03125 -3.671875 17.972656 -4.097656 19.171875 -4.953125 C 20.378906 -5.816406 20.984375 -6.972656 20.984375 -8.421875 C 20.984375 -9.222656 20.757812 -9.941406 20.3125 -10.578125 C 19.875 -11.222656 19.082031 -11.863281 17.9375 -12.5 C 16.800781 -13.144531 15.171875 -13.867188 13.046875 -14.671875 C 10.960938 -15.472656 9.175781 -16.269531 7.6875 -17.0625 C 6.207031 -17.863281 5.066406 -18.828125 4.265625 -19.953125 C 3.460938 -21.078125 3.0625 -22.519531 3.0625 -24.28125 C 3.0625 -27.007812 4.171875 -29.113281 6.390625 -30.59375 C 8.617188 -32.070312 11.535156 -32.8125 15.140625 -32.8125 C 17.109375 -32.8125 18.941406 -32.613281 20.640625 -32.21875 C 22.347656 -31.820312 23.941406 -31.300781 25.421875 -30.65625 L 23.625 -26.453125 C 22.257812 -27.015625 20.832031 -27.492188 19.34375 -27.890625 C 17.863281 -28.285156 16.34375 -28.484375 14.78125 -28.484375 C 12.625 -28.484375 10.972656 -28.132812 9.828125 -27.4375 C 8.679688 -26.738281 8.109375 -25.785156 8.109375 -24.578125 C 8.109375 -23.660156 8.367188 -22.898438 8.890625 -22.296875 C 9.410156 -21.703125 10.28125 -21.101562 11.5 -20.5 C 12.726562 -19.894531 14.363281 -19.210938 16.40625 -18.453125 C 18.445312 -17.691406 20.1875 -16.910156 21.625 -16.109375 C 23.070312 -15.304688 24.175781 -14.332031 24.9375 -13.1875 C 25.707031 -12.050781 26.09375 -10.617188 26.09375 -8.890625 Z M 26.09375 -8.890625 "/></g></g></g></svg>