<svg xmlns="http://www.w3.org/2000/svg" xmlns:xlink="http://www.w3.org/1999/xlink" width="500" zoomAndPan="magnify" viewBox="0 0 375 374.999991" height="500" preserveAspectRatio="xMidYMid meet" version="1.0"><defs><clipPath id="d5cdf5f450"><path d="M 12 33.28125 L 372.316406 33.28125 L 372.316406 337.78125 L 12 337.78125 Z M 12 33.28125 " clip-rule="nonzero"/></clipPath></defs><path stroke-linecap="butt" transform="matrix(0.621587, -0.419677, 0.419677, 0.621587, 257.400456, 105.764818)" fill="none" stroke-linejoin="miter" d="M 0.00251783 4.999028 L 21.47585 4.999277 " stroke="#273a4e" stroke-width="10" stroke-opacity="1" stroke-miterlimit="4"/><path stroke-linecap="round" transform="matrix(0.621587, -0.419677, 0.419677, 0.621587, 257.400456, 105.764818)" fill-opacity="1" fill="#273a4e" fill-rule="nonzero" stroke-linejoin="round" d="M 23.973326 -9.999354 L 43.973371 4.999754 L 23.972186 20.001191 Z M 23.973326 -9.999354 " stroke="#273a4e" stroke-width="10" stroke-opacity="1" stroke-miterlimit="4"/><g clip-path="url(#d5cdf5f450)"><path fill="#273a4e" d="M 371.007812 34.734375 C 370.132812 33.824219 368.929688 33.3125 367.671875 33.3125 C 292.863281 33.3125 238 53.652344 204.589844 93.757812 C 173.507812 131.070312 168.585938 176.199219 169.003906 203.542969 C 163.382812 193.988281 156.699219 184.734375 148.75 176.132812 C 118.195312 143.066406 74.867188 126.300781 19.972656 126.300781 C 17.867188 126.300781 16.039062 127.714844 15.496094 129.746094 C 14.957031 131.777344 2.683594 179.96875 32.269531 218.394531 C 55.164062 248.128906 96.351562 263.203125 154.675781 263.203125 C 156.023438 263.203125 157.3125 262.609375 158.191406 261.582031 C 159.066406 260.554688 159.449219 259.191406 159.25 257.855469 C 158.902344 255.6875 150.003906 204.359375 70.058594 172.351562 C 67.699219 171.402344 64.980469 172.546875 64.042969 174.929688 C 63.089844 177.300781 64.25 179.996094 66.621094 180.945312 C 126.4375 204.898438 143.941406 240.433594 148.574219 253.886719 C 96.558594 252.894531 59.9375 239.09375 39.660156 212.820312 C 17.144531 183.648438 21.621094 146.910156 23.714844 135.585938 C 74.117188 136.320312 113.875 152.054688 141.914062 182.367188 C 195.121094 239.898438 188.617188 331.632812 188.546875 332.558594 C 188.347656 335.109375 190.253906 337.332031 192.800781 337.527344 C 192.921875 337.542969 193.050781 337.550781 193.167969 337.550781 C 195.5625 337.550781 197.585938 335.710938 197.78125 333.28125 C 198.011719 330.347656 201.792969 277.417969 180.023438 225.597656 C 178.726562 217.222656 169.910156 149.855469 211.699219 99.683594 C 242.53125 62.667969 293.304688 43.472656 362.664062 42.601562 C 360.039062 70.300781 340.410156 207.070312 210.277344 210.25 C 210.78125 193.984375 216.78125 136.8125 274.507812 103.617188 C 276.722656 102.339844 277.484375 99.511719 276.210938 97.292969 C 274.933594 95.078125 272.109375 94.316406 269.890625 95.589844 C 197.539062 137.195312 200.984375 214.410156 201.03125 215.1875 C 201.167969 217.640625 203.191406 219.558594 205.652344 219.558594 C 362.957031 219.558594 372.21875 39.949219 372.292969 38.136719 C 372.34375 36.875 371.878906 35.644531 371.007812 34.734375 " fill-opacity="1" fill-rule="nonzero"/></g></svg>