<svg xmlns="http://www.w3.org/2000/svg" xmlns:xlink="http://www.w3.org/1999/xlink" width="500" zoomAndPan="magnify" viewBox="0 0 375 374.999991" height="500" preserveAspectRatio="xMidYMid meet" version="1.0"><defs><clipPath id="7d759cfb20"><path d="M 11 35.390625 L 370.816406 35.390625 L 370.816406 339.890625 L 11 339.890625 Z M 11 35.390625 " clip-rule="nonzero"/></clipPath></defs><g clip-path="url(#7d759cfb20)"><path fill="#e4eaec" d="M 369.507812 36.84375 C 368.632812 35.933594 367.429688 35.421875 366.171875 35.421875 C 291.363281 35.421875 236.5 55.761719 203.089844 95.867188 C 172.007812 133.179688 167.085938 178.308594 167.503906 205.652344 C 161.882812 196.097656 155.199219 186.84375 147.25 178.242188 C 116.695312 145.175781 73.367188 128.410156 18.472656 128.410156 C 16.367188 128.410156 14.539062 129.824219 13.996094 131.855469 C 13.457031 133.886719 1.183594 182.078125 30.769531 220.503906 C 53.664062 250.238281 94.851562 265.3125 153.175781 265.3125 C 154.523438 265.3125 155.8125 264.71875 156.691406 263.691406 C 157.566406 262.664062 157.949219 261.300781 157.75 259.964844 C 157.402344 257.796875 148.503906 206.46875 68.558594 174.460938 C 66.199219 173.511719 63.480469 174.65625 62.542969 177.039062 C 61.589844 179.410156 62.75 182.105469 65.121094 183.054688 C 124.9375 207.007812 142.441406 242.542969 147.074219 255.996094 C 95.058594 255.003906 58.4375 241.203125 38.160156 214.929688 C 15.644531 185.757812 20.121094 149.019531 22.214844 137.695312 C 72.617188 138.429688 112.375 154.164062 140.414062 184.476562 C 193.621094 242.007812 187.117188 333.742188 187.046875 334.667969 C 186.847656 337.21875 188.753906 339.441406 191.300781 339.636719 C 191.421875 339.652344 191.550781 339.660156 191.667969 339.660156 C 194.0625 339.660156 196.085938 337.820312 196.28125 335.390625 C 196.511719 332.457031 200.292969 279.527344 178.523438 227.707031 C 177.226562 219.332031 168.410156 151.964844 210.199219 101.792969 C 241.03125 64.777344 291.804688 45.582031 361.164062 44.710938 C 358.539062 72.410156 338.910156 209.179688 208.777344 212.359375 C 209.28125 196.09375 215.28125 138.921875 273.007812 105.726562 C 275.222656 104.449219 275.984375 101.621094 274.710938 99.402344 C 273.433594 97.1875 270.609375 96.425781 268.390625 97.699219 C 196.039062 139.304688 199.484375 216.519531 199.53125 217.296875 C 199.667969 219.75 201.691406 221.667969 204.152344 221.667969 C 361.457031 221.667969 370.71875 42.058594 370.792969 40.246094 C 370.84375 38.984375 370.378906 37.753906 369.507812 36.84375 " fill-opacity="1" fill-rule="nonzero"/></g><path stroke-linecap="butt" transform="matrix(0.621587, -0.419677, 0.419677, 0.621587, 257.400456, 105.764825)" fill="none" stroke-linejoin="miter" d="M 0.00252321 4.99902 L 21.475855 4.999269 " stroke="#e4eaec" stroke-width="10" stroke-opacity="1" stroke-miterlimit="4"/><path stroke-linecap="round" transform="matrix(0.621587, -0.419677, 0.419677, 0.621587, 257.400456, 105.764825)" fill-opacity="1" fill="#e4eaec" fill-rule="nonzero" stroke-linejoin="round" d="M 23.973332 -9.999362 L 43.973377 4.999746 L 23.972192 20.001183 Z M 23.973332 -9.999362 " stroke="#e4eaec" stroke-width="10" stroke-opacity="1" stroke-miterlimit="4"/></svg>